<svg width="50" height="50" viewBox="0 0 50 50" fill="none" xmlns="http://www.w3.org/2000/svg">
<circle cx="25" cy="25" r="25" fill="white"/>
<path d="M7.13498 15.6424C7.57113 15.2946 8.10857 15.098 8.66622 15.0824C9.22387 15.0668 9.77148 15.2329 10.2264 15.5558L12.3933 17.0726L11.8155 13.75C11.7262 13.1958 11.8186 12.6275 12.079 12.1302C12.3394 11.6329 12.7537 11.2332 13.2601 10.9908L13.0579 9.79178C13.0241 9.60031 13.0675 9.40328 13.1784 9.24362C13.2894 9.08397 13.4589 8.97464 13.6501 8.93947C13.8454 8.90582 14.0461 8.95071 14.2085 9.06435C14.3708 9.178 14.4817 9.35119 14.5169 9.5462L14.7191 10.7452C15.2736 10.8086 15.7928 11.0496 16.1989 11.4324C16.6051 11.8151 16.8766 12.319 16.9727 12.8688L17.5506 16.1914L18.9952 14.0245C19.3156 13.5823 19.7672 13.2522 20.2858 13.0811C20.8044 12.91 21.3637 12.9064 21.8844 13.071L22.5633 12.1031C22.6193 12.0235 22.6904 11.9556 22.7726 11.9034C22.8548 11.8512 22.9465 11.8157 23.0424 11.7989C23.1383 11.7822 23.2366 11.7845 23.3316 11.8057C23.4266 11.8269 23.5166 11.8666 23.5962 11.9226C23.6759 11.9785 23.7438 12.0496 23.796 12.1318C23.8482 12.214 23.8837 12.3057 23.9004 12.4016C23.9172 12.4975 23.9149 12.5958 23.8937 12.6908C23.8725 12.7859 23.8328 12.8758 23.7768 12.9555L23.0978 13.9233C23.4436 14.3611 23.6376 14.8994 23.6506 15.457C23.6636 16.0146 23.495 16.5614 23.1701 17.0148L18.6629 23.4144L19.6164 28.9328C19.7081 29.4872 19.6167 30.0564 19.356 30.5543C19.0954 31.0521 18.6797 31.4515 18.1717 31.692L18.3884 32.891C18.405 32.9868 18.4024 33.085 18.3808 33.1798C18.3592 33.2747 18.319 33.3643 18.2626 33.4435C18.2062 33.5228 18.1347 33.5901 18.0521 33.6415C17.9696 33.693 17.8777 33.7276 17.7817 33.7433C17.5902 33.777 17.3932 33.7337 17.2335 33.6227C17.0739 33.5118 16.9646 33.3422 16.9294 33.151L16.7127 31.9376C16.1591 31.8758 15.6408 31.635 15.2367 31.2516C14.8325 30.8683 14.5645 30.3635 14.4736 29.814L13.5057 24.2956L7.2361 19.7884C6.7922 19.4694 6.4608 19.018 6.2895 18.4989C6.1182 17.9798 6.11581 17.4198 6.28266 16.8992L5.31478 16.2203C5.23461 16.1655 5.1663 16.0951 5.11396 16.0133C5.06161 15.9315 5.02628 15.84 5.0101 15.7443C4.99392 15.6485 4.99721 15.5505 5.01977 15.4561C5.04234 15.3616 5.08371 15.2727 5.14143 15.1946C5.19107 15.0997 5.26081 15.0168 5.34577 14.9516C5.43074 14.8864 5.5289 14.8405 5.63341 14.8171C5.73792 14.7938 5.84627 14.7935 5.95092 14.8162C6.05556 14.839 6.15398 14.8843 6.23933 14.949L7.20721 15.6424H7.13498ZM17.6806 18.5316C17.5974 18.6509 17.4807 18.7429 17.3454 18.796C17.21 18.8492 17.0619 18.861 16.9198 18.8301C16.7777 18.7992 16.6479 18.727 16.5467 18.6224C16.4456 18.5179 16.3777 18.3858 16.3515 18.2427L15.4703 13.1577C15.4205 12.8665 15.2571 12.6071 15.016 12.4364C14.7749 12.2657 14.4758 12.1978 14.1846 12.2476C13.8935 12.2974 13.634 12.4609 13.4633 12.702C13.2926 12.9431 13.2247 13.2421 13.2745 13.5333L14.1558 18.6183C14.1803 18.7623 14.1614 18.9103 14.1016 19.0436C14.0418 19.1768 13.9438 19.2893 13.8199 19.3667C13.6961 19.4441 13.552 19.4829 13.406 19.4783C13.2601 19.4737 13.1188 19.4257 13.0001 19.3406L9.37412 16.7692C9.25555 16.6857 9.1217 16.6264 8.9802 16.5947C8.83871 16.5629 8.69235 16.5593 8.54948 16.5841C8.4066 16.6089 8.27002 16.6617 8.14751 16.7393C8.02501 16.8169 7.919 16.9178 7.83552 17.0364C7.75204 17.155 7.69274 17.2888 7.661 17.4303C7.62925 17.5718 7.62569 17.7182 7.65052 17.8611C7.67535 18.0039 7.72807 18.1405 7.80568 18.263C7.8833 18.3855 7.98428 18.4915 8.10286 18.575L14.748 23.2699C14.9074 23.3833 15.0162 23.5543 15.0514 23.7467L16.0626 29.5251C16.0735 29.6802 16.1168 29.8313 16.1896 29.9686C16.2625 30.106 16.3634 30.2266 16.4857 30.3225C16.6081 30.4185 16.7492 30.4877 16.8999 30.5258C17.0507 30.5639 17.2078 30.5699 17.361 30.5435C17.5142 30.5171 17.6602 30.4589 17.7896 30.3726C17.9189 30.2863 18.0288 30.1739 18.112 30.0425C18.1952 29.9111 18.2499 29.7638 18.2726 29.61C18.2954 29.4562 18.2856 29.2993 18.244 29.1495L17.2328 23.3711C17.2023 23.1735 17.2489 22.9719 17.3628 22.8077L22.13 16.1625C22.2248 16.0436 22.2942 15.9066 22.334 15.7599C22.3738 15.6131 22.383 15.4598 22.3612 15.3093C22.3394 15.1589 22.287 15.0145 22.2072 14.885C22.1274 14.7556 22.0219 14.6439 21.8973 14.5569C21.7727 14.4698 21.6315 14.4093 21.4825 14.3789C21.3335 14.3485 21.1799 14.349 21.0311 14.3804C20.8824 14.4117 20.7416 14.4732 20.6175 14.5611C20.4935 14.6489 20.3887 14.7613 20.3098 14.8912L17.6806 18.5316Z" fill="#999999"/>
<path d="M36.8794 31.6197C36.5297 30.67 35.947 29.8234 35.1848 29.1577C34.4226 28.492 33.5053 28.0286 32.5172 27.8099C31.529 27.5913 30.5018 27.6245 29.5299 27.9066C28.558 28.1886 27.6725 28.7104 26.9549 29.4239L23.4301 32.9199C22.9955 33.3527 22.6712 33.8837 22.4846 34.468C22.298 35.0523 22.2546 35.6729 22.358 36.2775C22.4613 36.8822 22.7085 37.4531 23.0786 37.9423C23.4487 38.4314 23.9309 38.8245 24.4847 39.0883C25.2279 39.4368 26.0633 39.538 26.8683 39.3773V39.3773C27.8702 39.1931 28.8992 39.2147 29.8926 39.4407C30.8859 39.6667 31.823 40.0923 32.6467 40.6918C33.077 41.008 33.5693 41.2296 34.0913 41.3419C34.3716 41.4001 34.6573 41.4291 34.9436 41.4286C35.5566 41.4277 36.1602 41.2785 36.703 40.9937C37.2459 40.709 37.7117 40.2971 38.0608 39.7933C38.41 39.2894 38.632 38.7086 38.708 38.1004C38.784 37.4921 38.7117 36.8745 38.4973 36.3003L36.8794 31.6197ZM36.4315 39.5073C36.0164 39.8236 35.5089 39.9949 34.9869 39.9949C34.465 39.9949 33.9575 39.8236 33.5423 39.5073C32.5443 38.7715 31.4023 38.2546 30.1908 37.9904C28.9818 37.7286 27.7306 37.7286 26.5215 37.9904V37.9904C26.0255 38.0733 25.516 37.9962 25.0667 37.7703C24.6174 37.5443 24.2516 37.1813 24.0224 36.7336C23.7838 36.2844 23.6971 35.7701 23.7752 35.2675C23.8534 34.7649 24.0921 34.3011 24.4558 33.9456L27.9806 30.4352C28.5238 29.8905 29.1959 29.492 29.9344 29.2767C30.6729 29.0613 31.4538 29.036 32.2046 29.2032C32.9555 29.3704 33.6519 29.7246 34.2293 30.2329C34.8066 30.7413 35.2461 31.3872 35.507 32.1109L37.2261 36.7336C37.4175 37.2189 37.4434 37.7538 37.2997 38.2554C37.156 38.7569 36.8509 39.1969 36.4315 39.5073V39.5073Z" fill="#999999"/>
<path d="M25.0191 28.9905C25.4477 28.9194 25.8546 28.7526 26.2098 28.5025C26.5649 28.2524 26.8591 27.9254 27.0705 27.5459C27.5435 26.7778 27.723 25.8646 27.5761 24.9745C27.4514 24.0877 27.0163 23.2739 26.3482 22.6776C26.0268 22.3912 25.6477 22.1773 25.2364 22.0501C24.8252 21.923 24.3915 21.8858 23.9646 21.9408C23.1021 22.1346 22.3505 22.6599 21.872 23.4032C21.3936 24.1465 21.2268 25.0482 21.4076 25.9135C21.4903 26.6133 21.7809 27.2723 22.2419 27.8053C22.7028 28.3383 23.3129 28.721 23.9935 28.9038C24.328 28.9907 24.6748 29.02 25.0191 28.9905V28.9905ZM22.8378 25.7402C22.7139 25.2557 22.7853 24.7419 23.0366 24.3096C23.2879 23.8773 23.699 23.561 24.1813 23.4288C24.3438 23.4008 24.5099 23.4008 24.6724 23.4288C24.9406 23.4921 25.1888 23.6212 25.3947 23.8044C25.8002 24.1795 26.0655 24.6817 26.1469 25.228C26.2284 25.7744 26.121 26.3321 25.8426 26.8092C25.7354 27.0006 25.5861 27.1652 25.4059 27.2904C25.2256 27.4155 25.0193 27.498 24.8024 27.5315V27.5315C24.3111 27.5398 23.8356 27.3582 23.4749 27.0244C23.1143 26.6907 22.8964 26.2306 22.8667 25.7402H22.8378Z" fill="#999999"/>
<path d="M30.7975 26.9104C31.82 27.064 32.8617 26.807 33.6953 26.1953C34.5289 25.5836 35.0867 24.667 35.2469 23.6456C35.5334 22.6552 35.4161 21.5917 34.9207 20.6876C34.4254 19.7834 33.5922 19.1122 32.6033 18.8206C31.5824 18.6627 30.5406 18.9163 29.7065 19.5257C28.8723 20.135 28.314 21.0504 28.1539 22.071C27.867 23.0632 27.9839 24.1286 28.4791 25.0351C28.9743 25.9416 29.8076 26.6156 30.7975 26.9104V26.9104ZM32.2421 20.2363C32.8563 20.447 33.3627 20.891 33.652 21.4723C33.9413 22.0535 33.9901 22.7253 33.7879 23.3422C33.7082 23.9856 33.3788 24.5719 32.8707 24.9746C32.3626 25.3772 31.7166 25.564 31.072 25.4947C30.4602 25.2808 29.9561 24.8364 29.6674 24.2562C29.3786 23.6759 29.328 23.0058 29.5263 22.3888C29.5653 22.0619 29.6693 21.7461 29.8321 21.46C29.995 21.1738 30.2134 20.9231 30.4744 20.7226C30.7355 20.5221 31.0341 20.3757 31.3525 20.2922C31.671 20.2087 32.0029 20.1897 32.3288 20.2363H32.2421Z" fill="#999999"/>
<path d="M36.7638 29.265C37.0356 29.4333 37.3333 29.5554 37.645 29.6262C38.4153 29.7567 39.2072 29.6448 39.9111 29.3057C40.615 28.9667 41.1962 28.4174 41.5743 27.7338C42.0818 26.9093 42.2814 25.932 42.1377 24.9746C42.0705 24.5219 41.9067 24.0889 41.6574 23.7051C41.4082 23.3212 41.0793 22.9955 40.6931 22.7499C40.2944 22.5117 39.8473 22.366 39.3848 22.3235C38.9223 22.281 38.4561 22.3428 38.0206 22.5043C37.1123 22.8319 36.3463 23.4651 35.8537 24.2956C35.3181 25.0761 35.1132 26.0369 35.2837 26.968C35.4543 27.8992 35.9864 28.725 36.7638 29.265ZM37.0961 25.0323C37.4058 24.4997 37.8909 24.0912 38.4685 23.8767C38.7031 23.7896 38.954 23.7548 39.2035 23.7748C39.453 23.7947 39.6952 23.869 39.9131 23.9922C40.127 24.1251 40.3082 24.3045 40.4433 24.5171C40.5783 24.7297 40.6637 24.97 40.6931 25.2201C40.7863 25.8319 40.6582 26.4568 40.332 26.9826C40.211 27.241 40.0402 27.4729 39.8294 27.6652C39.6186 27.8574 39.3719 28.0061 39.1034 28.1027C38.835 28.1994 38.5501 28.242 38.2651 28.2283C37.9801 28.2146 37.7007 28.1447 37.4428 28.0227C37.0119 27.6642 36.7355 27.1537 36.6709 26.5969C36.6064 26.0401 36.7586 25.4799 37.0961 25.0323Z" fill="#999999"/>
<path d="M44.348 30.464C43.7003 29.8887 42.8654 29.5687 41.9992 29.5637C41.1329 29.5586 40.2944 29.8689 39.64 30.4365C38.9857 31.0042 38.5602 31.7906 38.443 32.6489C38.3258 33.5072 38.5248 34.3789 39.0029 35.1012C39.4045 35.5657 39.9476 35.8855 40.5486 36.0113C41.1104 36.1226 41.6904 36.1009 42.2423 35.9479C42.7942 35.7949 43.3025 35.5148 43.7268 35.1301C44.426 34.5924 44.8839 33.7996 45.0003 32.9253C45.1167 32.0509 44.8821 31.166 44.348 30.464V30.464ZM42.7733 34.0322C42.6205 34.2343 42.4246 34.3998 42.1998 34.5166C41.975 34.6335 41.727 34.6987 41.4738 34.7077C41.2206 34.7166 40.9686 34.669 40.7361 34.5683C40.5037 34.4676 40.2965 34.3164 40.1299 34.1256C39.9632 33.9348 39.8411 33.7092 39.7726 33.4653C39.704 33.2214 39.6907 32.9653 39.7336 32.7156C39.7765 32.4659 39.8745 32.2289 40.0205 32.0218C40.1665 31.8148 40.3568 31.6429 40.5775 31.5186C40.8283 31.2854 41.1296 31.1132 41.4578 31.0155C41.7861 30.9177 42.1324 30.8971 42.47 30.9552C42.7729 31.0216 43.0464 31.1837 43.2501 31.4175C43.5302 31.8285 43.6372 32.3333 43.548 32.8226C43.4587 33.3119 43.1805 33.7465 42.7733 34.0322V34.0322Z" fill="#999999"/>
</svg>
