<svg width="173" height="109" viewBox="0 0 173 109" fill="none" xmlns="http://www.w3.org/2000/svg">
<path d="M30.5773 46.3976C29.416 48.3567 28.4798 50.4447 27.7872 52.6206C27.7509 52.7367 27.6792 52.8381 27.5823 52.91C27.4855 52.982 27.3686 53.0208 27.2486 53.0208C27.1286 53.0208 27.0118 52.982 26.9149 52.91C26.8181 52.8381 26.7463 52.7367 26.71 52.6206C26.0967 50.6361 25.8761 48.548 26.0609 46.4766C26.2458 44.4052 26.8325 42.3914 27.7872 40.5513C28.8646 38.8636 30.2714 37.4183 31.9207 36.3047C33.57 35.1912 35.4267 34.4331 37.376 34.0773L34.0738 33.1447C33.9846 33.1147 33.9036 33.0638 33.8372 32.9962C33.7709 32.9286 33.7211 32.8461 33.6919 32.7554C33.6627 32.6647 33.6549 32.5683 33.6691 32.4739C33.6833 32.3796 33.7191 32.2899 33.7736 32.2122C33.966 31.9488 34.1206 31.6589 34.2327 31.3514L32.4668 32.6067C32.3256 32.6067 32.1666 32.7681 32.0077 32.6067C30.5913 32.3268 29.1575 32.147 27.7166 32.0687C27.5988 32.0672 27.4844 32.0284 27.3894 31.9577C27.2945 31.8869 27.2236 31.7878 27.1868 31.6742C27.1246 31.5817 27.0912 31.4723 27.0912 31.3603C27.0912 31.2483 27.1246 31.1389 27.1868 31.0465C28.016 29.9166 29.0773 28.9834 30.2969 28.3114C31.5166 27.6394 32.8656 27.2448 34.2504 27.1549C35.7547 27.274 37.2166 27.7179 38.5383 28.4571C39.8601 29.1963 41.0111 30.2136 41.9143 31.441C41.8247 28.7889 42.663 26.1903 44.2806 24.1062C46.2055 22.008 49.1898 21.2369 53.1101 21.9363C53.3397 21.9363 53.4986 22.1694 53.5692 22.3129C53.6035 22.4221 53.6068 22.5389 53.5787 22.6499C53.5506 22.7609 53.4922 22.8617 53.4103 22.9405C52.651 23.6399 51.8916 24.3394 51.1146 25.2002C50.8144 25.523 49.2075 25.523 48.2009 26.4555H48.8896C48.9979 26.4542 49.1045 26.4818 49.199 26.5356C49.2934 26.5893 49.3723 26.6673 49.4277 26.7617C49.4831 26.8562 49.5132 26.9637 49.5148 27.0736C49.5164 27.1835 49.4896 27.292 49.437 27.3881C49.2075 27.7109 48.5894 28.4103 47.0531 30.7416C50.1189 29.3717 53.4033 28.5758 56.7478 28.3923C61.9572 28.3923 64.8709 31.3514 64.8709 36.9646C64.8853 37.0569 64.8709 37.1515 64.8297 37.2351C64.7886 37.3187 64.7227 37.3871 64.6414 37.4308C64.4824 37.4308 64.2529 37.5922 64.1116 37.4308C63.1357 37.0431 62.1321 36.7313 61.1096 36.4983C60.7211 36.4983 60.4209 35.6554 58.655 33.6289C58.5735 34.1246 58.6285 34.6335 58.8139 35.0995C58.8318 35.1935 58.8295 35.2904 58.807 35.3835C58.7845 35.4765 58.7425 35.5635 58.6838 35.6385C58.625 35.7135 58.551 35.7747 58.4668 35.8178C58.3826 35.861 58.2901 35.8851 58.1959 35.8886C57.0844 35.6493 55.957 35.4934 54.823 35.4223C58.1278 36.5057 60.9529 38.7336 62.8048 41.717C64.4824 44.9988 64.1822 49.0518 61.7983 53.6428C61.7523 53.7279 61.6863 53.8003 61.6062 53.8535C61.5262 53.9067 61.4344 53.939 61.3391 53.9476C61.2392 53.9526 61.1394 53.9341 61.0475 53.8937C60.9557 53.8533 60.8742 53.792 60.8094 53.7145C60.8094 53.7145 59.2731 51.6163 57.048 48.8904C56.988 48.7971 56.956 48.688 56.956 48.5765C56.956 48.4651 56.988 48.356 57.048 48.2627C57.571 47.0941 57.8073 45.8142 57.7367 44.5325L56.6595 47.0253C56.6163 47.1172 56.5518 47.1971 56.4714 47.2581C56.391 47.319 56.2972 47.3591 56.1981 47.375C56.099 47.3909 55.9976 47.3821 55.9026 47.3493C55.8076 47.3165 55.722 47.2606 55.653 47.1867C54.5934 45.9313 53.5869 44.8374 52.7393 43.9048C52.6712 43.8357 52.6223 43.7496 52.5975 43.6551C52.5727 43.5606 52.5729 43.4612 52.598 43.3668C52.6986 42.2513 52.6986 41.1288 52.598 40.0133L51.7504 41.9501C51.7199 42.042 51.6656 42.1238 51.5931 42.187C51.5206 42.2501 51.4327 42.2921 51.3386 42.3087C51.2445 42.3252 51.1478 42.3156 51.0586 42.2809C50.9694 42.2462 50.8912 42.1877 50.8321 42.1115C49.4651 40.7599 48.0013 39.5131 46.4527 38.3813C52.1389 48.4958 57.8074 57.2867 57.4365 68.7283C57.3947 69.554 57.0973 70.3452 56.5868 70.9892C56.0763 71.6332 55.3788 72.0972 54.5934 72.315C53.6501 72.6152 52.6683 72.7723 51.6797 72.7813C51.6797 72.7813 50.6517 72.6657 50.1863 72.4367C49.7209 72.2077 49.3133 71.8735 48.9946 71.4599C48.6759 71.0462 48.4546 70.564 48.3476 70.0502C48.2407 69.5363 48.2509 69.0044 48.3775 68.4952C49.5253 63.8325 51.0617 56.3687 42.0909 39.1525C41.2433 41.3224 40.484 43.4386 39.9366 45.3754C39.9366 45.7699 39.3185 45.9313 37.5703 47.4019C37.8304 47.7741 38.2021 48.0509 38.6298 48.191C38.7693 48.2366 38.8867 48.3339 38.9587 48.4635C39.0307 48.5931 39.052 48.7455 39.0183 48.8904C38.4646 50.9949 38.2089 53.1687 38.259 55.3464C38.2692 55.4611 38.2441 55.5762 38.1872 55.6758C38.1302 55.7754 38.0442 55.8546 37.9411 55.9024C37.9411 55.9024 37.7998 55.9024 37.6409 55.9024C37.5373 55.9343 37.4267 55.9343 37.323 55.9024C36.2516 55.0961 35.3486 54.0816 34.6665 52.9179C33.9844 51.7542 33.5369 50.4644 33.3498 49.1235C33.0746 45.8589 33.9439 42.6005 35.8044 39.9236C34.4772 41.1844 33.2656 42.565 32.1843 44.0483C32.0844 44.1697 31.942 44.2468 31.7872 44.2636C31.6323 44.2803 31.4771 44.2353 31.3543 44.138C31.0859 43.9098 30.8027 43.7001 30.5067 43.5103C30.6656 46.0031 30.8069 46.0748 30.5067 46.3976H30.5773Z" fill="#84C6D3"/>
<path d="M54.7369 71.3892V90.5M119.836 71.3892V92.9204" stroke="#2E9FB5" stroke-width="4"/>
<path d="M88.9646 35.3412L133.489 65.3942C135.942 67.0498 134.77 70.8807 131.811 70.8807H42.7615C39.8022 70.8807 38.6303 67.0498 41.0832 65.3942L85.6079 35.3412C86.6221 34.6567 87.9504 34.6567 88.9646 35.3412Z" fill="white" stroke="#2E9FB5" stroke-width="4"/>
<path d="M25.8413 93.4977C25.8413 93.4977 37.2382 90.3981 48.2696 90.2518C60.1359 90.0943 62.0799 93.3997 73.9686 93.3222C85.2487 93.2486 86.5623 90.4521 97.7986 90.2518C111.228 90.0124 114.732 94.1933 127.703 93.4977C137.79 92.9567 134.748 90.062 144.991 89.6377C157.4 89.1236 171.625 93.1468 171.625 93.1468" stroke="#2E9FB5" stroke-width="2" stroke-linecap="round"/>
<path d="M149.985 72.8822C151.146 74.8413 152.082 76.9293 152.775 79.1052C152.811 79.2213 152.883 79.3227 152.98 79.3947C153.076 79.4666 153.193 79.5054 153.313 79.5054C153.433 79.5054 153.55 79.4666 153.647 79.3947C153.744 79.3227 153.816 79.2213 153.852 79.1052C154.465 77.1207 154.686 75.0326 154.501 72.9612C154.316 70.8898 153.729 68.876 152.775 67.0359C151.697 65.3482 150.291 63.9029 148.641 62.7894C146.992 61.6758 145.135 60.9177 143.186 60.5619L146.488 59.6293C146.577 59.5993 146.658 59.5485 146.725 59.4808C146.791 59.4132 146.841 59.3307 146.87 59.24C146.899 59.1493 146.907 59.0529 146.893 58.9585C146.879 58.8642 146.843 58.7745 146.788 58.6968C146.596 58.4334 146.441 58.1436 146.329 57.836L148.095 59.0913C148.236 59.0913 148.395 59.2527 148.554 59.0913C149.971 58.8114 151.404 58.6316 152.845 58.5533C152.963 58.5518 153.078 58.513 153.173 58.4423C153.267 58.3715 153.338 58.2724 153.375 58.1588C153.437 58.0663 153.471 57.957 153.471 57.845C153.471 57.733 153.437 57.6236 153.375 57.5311C152.546 56.4012 151.485 55.468 150.265 54.796C149.045 54.124 147.696 53.7294 146.312 53.6395C144.807 53.7586 143.345 54.2025 142.024 54.9417C140.702 55.6809 139.551 56.6982 138.648 57.9257C138.737 55.2735 137.899 52.6749 136.281 50.5908C134.356 48.4926 131.372 47.7215 127.452 48.4209C127.222 48.4209 127.063 48.654 126.993 48.7975C126.958 48.9067 126.955 49.0235 126.983 49.1345C127.011 49.2456 127.07 49.3463 127.152 49.4252C127.911 50.1246 128.67 50.824 129.447 51.6848C129.748 52.0076 131.354 52.0076 132.361 52.9401H131.672C131.564 52.9389 131.457 52.9665 131.363 53.0202C131.269 53.0739 131.19 53.1519 131.134 53.2464C131.079 53.3408 131.049 53.4483 131.047 53.5582C131.046 53.6682 131.072 53.7766 131.125 53.8727C131.354 54.1955 131.973 54.8949 133.509 57.2262C130.443 55.8563 127.159 55.0604 123.814 54.877C118.605 54.877 115.691 57.836 115.691 63.4492C115.677 63.5415 115.691 63.6361 115.732 63.7197C115.773 63.8033 115.839 63.8717 115.921 63.9155C116.08 63.9155 116.309 64.0769 116.45 63.9155C117.426 63.5277 118.43 63.2159 119.452 62.9829C119.841 62.9829 120.141 62.14 121.907 60.1136C121.988 60.6092 121.933 61.1182 121.748 61.5841C121.73 61.6782 121.732 61.7751 121.755 61.8681C121.777 61.9611 121.819 62.0482 121.878 62.1231C121.937 62.1981 122.011 62.2593 122.095 62.3024C122.179 62.3456 122.272 62.3697 122.366 62.3732C123.478 62.1339 124.605 61.9781 125.739 61.9069C122.434 62.9903 119.609 65.2182 117.757 68.2016C116.08 71.4834 116.38 75.5364 118.764 80.1274C118.81 80.2126 118.876 80.2849 118.956 80.3381C119.036 80.3913 119.128 80.4236 119.223 80.4323C119.323 80.4372 119.423 80.4188 119.514 80.3783C119.606 80.3379 119.688 80.2766 119.753 80.1991C119.753 80.1991 121.289 78.1009 123.514 75.375C123.574 75.2817 123.606 75.1726 123.606 75.0612C123.606 74.9497 123.574 74.8406 123.514 74.7473C122.991 73.5787 122.755 72.2988 122.825 71.0171L123.902 73.5099C123.946 73.6019 124.01 73.6817 124.091 73.7427C124.171 73.8036 124.265 73.8438 124.364 73.8597C124.463 73.8755 124.564 73.8667 124.659 73.8339C124.754 73.8011 124.84 73.7453 124.909 73.6713C125.969 72.416 126.975 71.322 127.823 70.3895C127.891 70.3203 127.94 70.2342 127.964 70.1397C127.989 70.0453 127.989 69.9458 127.964 69.8515C127.863 68.7359 127.863 67.6134 127.964 66.4979L128.812 68.4347C128.842 68.5266 128.896 68.6085 128.969 68.6716C129.041 68.7347 129.129 68.7768 129.223 68.7933C129.317 68.8098 129.414 68.8002 129.503 68.7655C129.593 68.7308 129.671 68.6723 129.73 68.5961C131.097 67.2445 132.561 65.9977 134.109 64.8659C128.423 74.9805 122.755 88.7713 123.125 100.213C123.167 101.039 123.975 102.474 123.975 102.474C123.975 102.474 125.09 102.642 125.875 102.859C126.818 103.16 128.875 103.141 128.875 103.141L130.407 103.359C130.407 103.359 131.249 103.358 131.567 102.945C131.886 102.531 132.107 102.049 132.214 101.535C132.321 101.021 132.311 100.489 132.184 99.9798C131.037 95.3171 129.5 82.8533 138.471 65.6371C139.319 67.807 140.078 69.9232 140.625 71.86C140.625 72.2546 141.243 72.416 142.992 73.8865C142.732 74.2587 142.36 74.5355 141.932 74.6756C141.793 74.7212 141.675 74.8185 141.603 74.9481C141.531 75.0778 141.51 75.2302 141.544 75.375C142.097 77.4795 142.353 79.6533 142.303 81.8311C142.293 81.9457 142.318 82.0608 142.375 82.1604C142.432 82.26 142.518 82.3392 142.621 82.387C142.621 82.387 142.762 82.387 142.921 82.387C143.025 82.4189 143.135 82.4189 143.239 82.387C144.31 81.5807 145.213 80.5662 145.895 79.4025C146.578 78.2388 147.025 76.949 147.212 75.6081C147.487 72.3435 146.618 69.0852 144.758 66.4082C146.085 67.669 147.296 69.0496 148.378 70.5329C148.478 70.6543 148.62 70.7315 148.775 70.7482C148.93 70.7649 149.085 70.7199 149.208 70.6226C149.476 70.3944 149.759 70.1847 150.055 69.9949C149.896 72.4877 149.755 72.5594 150.055 72.8822H149.985Z" fill="#60B6C7"/>
<path d="M147.121 107.133C147.121 107.133 135.724 102.488 124.693 102.269C112.827 102.033 110.883 106.986 98.9939 106.87C87.7138 106.76 86.4003 102.569 75.1639 102.269C61.7347 101.91 58.2303 108.175 45.2595 107.133C35.1726 106.322 38.215 101.985 27.9711 101.349C15.563 100.579 1.33753 106.607 1.33753 106.607" stroke="#2E9FB5" stroke-width="2" stroke-linecap="round"/>
<path d="M121.017 0.684814C109.88 0.684788 109.681 11.4691 109.681 11.4691C109.681 11.4691 101.581 15.0036 102.017 19.3123C102.371 22.8131 105.849 25.1946 108.244 25.6848H142.73C142.73 25.6848 147.955 23.1524 147.999 20.1293C148.029 18.0461 147.219 16.6601 145.604 15.3907C143.985 14.1171 140.495 14.2469 140.495 14.2469C140.495 14.2469 139.945 8.86441 137.462 7.38416C135.306 6.09972 131.075 7.38416 131.075 7.38416C131.075 7.38416 129.159 0.684834 121.017 0.684814Z" fill="#84C6D3"/>
<line x1="113.5" y1="31.1848" x2="113.5" y2="39.1848" stroke="#2E9FB5" stroke-linecap="round"/>
<line x1="139.5" y1="31.1848" x2="139.5" y2="39.1848" stroke="#2E9FB5" stroke-linecap="round"/>
<line x1="132.5" y1="28.1848" x2="132.5" y2="33.1848" stroke="#2E9FB5" stroke-linecap="round"/>
<line x1="127.5" y1="34.1848" x2="127.5" y2="38.1848" stroke="#2E9FB5" stroke-linecap="round"/>
<line x1="127.5" y1="28.1848" x2="127.5" y2="31.1848" stroke="#2E9FB5" stroke-linecap="round"/>
<line x1="109.5" y1="29.1848" x2="109.5" y2="33.1848" stroke="#2E9FB5" stroke-linecap="round"/>
<line x1="122.5" y1="32.1848" x2="122.5" y2="42.1848" stroke="#2E9FB5" stroke-linecap="round"/>
<line x1="118.5" y1="27.1848" x2="118.5" y2="33.1848" stroke="#2E9FB5" stroke-linecap="round"/>
</svg>
