<svg viewBox="0 0 2500 911" fill="none" xmlns="http://www.w3.org/2000/svg">
<rect fill="white"/>
<rect fill="#EAF5F6"/>
<path d="M0 267L59.7222 261.931C119.444 256.861 238.889 246.723 357.778 249.257C476.944 251.792 595.278 267 714.444 261.931C833.333 256.861 952.778 231.515 1071.67 225.178C1190.83 218.842 1309.17 231.515 1428.33 239.119C1547.22 246.723 1666.67 249.257 1785.56 242.921C1904.72 236.584 2023.06 221.376 2142.22 207.436C2261.11 193.495 2380.56 180.822 2440.28 174.485L2500 168.149V36.3465L2440.28 33.8119C2380.56 31.2772 2261.11 26.2079 2142.22 21.1386C2023.06 16.0693 1904.72 11 1785.56 11C1666.67 11 1547.22 16.0693 1428.33 21.1386C1309.17 26.2079 1190.83 31.2772 1071.67 35.0792C952.778 38.8812 833.333 41.4158 714.444 41.4158C595.278 41.4158 476.944 38.8812 357.778 35.0792C238.889 31.2772 119.444 26.2079 59.7222 23.6733L0 21.1386V267Z" fill="#EAF5F6"/>
<path d="M0 816.014L59.7222 821.74C119.444 827.465 238.889 838.916 357.778 842.732C476.944 846.549 595.278 842.732 714.444 840.188C833.333 837.643 952.778 836.371 1071.67 840.824C1190.83 845.277 1309.17 855.455 1428.33 856.728C1547.22 858 1666.67 850.366 1785.56 846.549C1904.72 842.732 2023.06 842.732 2142.22 845.277C2261.11 847.822 2380.56 852.911 2440.28 855.455L2500 858V723.137L2440.28 719.32C2380.56 715.503 2261.11 707.869 2142.22 709.141C2023.06 710.414 1904.72 720.592 1785.56 723.773C1666.67 726.953 1547.22 723.137 1428.33 719.32C1309.17 715.503 1190.83 711.686 1071.67 713.594C952.778 715.503 833.333 723.137 714.444 730.134C595.278 737.132 476.944 743.493 357.778 747.31C238.889 751.127 119.444 752.399 59.7222 753.036L0 753.672V816.014Z" fill="#A6D5DF"/>
<path d="M0 855.916L59.7222 863.961C119.444 872.006 238.889 888.095 357.778 888.095C476.944 888.095 595.278 872.006 714.444 864.966C833.333 857.927 952.778 859.939 1071.67 866.978C1190.83 874.017 1309.17 886.084 1428.33 890.106C1547.22 894.128 1666.67 890.106 1785.56 883.067C1904.72 876.028 2023.06 865.972 2142.22 866.978C2261.11 867.983 2380.56 880.05 2440.28 886.084L2500 892.117V841.838L2440.28 837.816C2380.56 833.793 2261.11 825.749 2142.22 821.726C2023.06 817.704 1904.72 817.704 1785.56 823.737C1666.67 829.771 1547.22 841.838 1428.33 839.827C1309.17 837.816 1190.83 821.726 1071.67 814.687C952.778 807.648 833.333 809.659 714.444 813.682C595.278 817.704 476.944 823.737 357.778 817.704C238.889 811.67 119.444 793.57 59.7222 784.52L0 775.469V855.916Z" fill="#B5DCE4"/>
<path d="M0 183L69.5 176C139 169 278 155 416.8 156C555.7 157 694.3 173 833.2 182C972 191 1111 193 1250 186C1389 179 1528 163 1666.8 162C1805.7 161 1944.3 175 2083.2 184C2222 193 2361 197 2430.5 199L2500 201V163L2430.5 156C2361 149 2222 135 2083.2 129C1944.3 123 1805.7 125 1666.8 123C1528 121 1389 115 1250 103C1111 91 972 73 833.2 70C694.3 67 555.7 79 416.8 81C278 83 139 75 69.5 71L0 67V183Z" fill="#A6D5DF"/>
<path d="M0 321L69.5 331C139 341 278 361 416.8 347C555.7 333 694.3 285 833.2 264C972 243 1111 249 1250 296C1389 343 1528 431 1666.8 447C1805.7 463 1944.3 407 2083.2 372C2222 337 2361 323 2430.5 316L2500 309V199L2430.5 197C2361 195 2222 191 2083.2 182C1944.3 173 1805.7 159 1666.8 160C1528 161 1389 177 1250 184C1111 191 972 189 833.2 180C694.3 171 555.7 155 416.8 154C278 153 139 167 69.5 174L0 181V321Z" fill="#96CDD9"/>
</svg>
