<svg  viewBox="0 0 2500 717" fill="none" xmlns="http://www.w3.org/2000/svg">
<rect fill="white"/>
<path d="M0 699.289L59.7222 685.408C119.444 671.527 238.889 643.765 357.778 650.705C476.944 657.646 595.278 699.289 714.444 685.408C833.333 671.527 952.778 602.122 1071.67 584.771C1190.83 567.42 1309.17 602.122 1428.33 622.944C1547.22 643.765 1666.67 650.705 1785.56 633.354C1904.72 616.003 2023.06 671.527 2142.22 633.354C2246 621.148 2324 611.307 2384 622.944C2444 634.58 2500 633.354 2500 633.354V67.7063C2500 67.7063 2478 64.2361 2440.28 60.7659C2402.56 57.2956 2261.11 62.5193 2142.22 48.6384C2023.06 34.7575 1904.72 26.0635 1785.56 26.0635C1666.67 26.0635 1536.89 34.7574 1418 48.6383C1298.83 62.5193 1190.83 53.8254 1071.67 64.2361C952.778 74.6468 833.333 81.5873 714.444 81.5873C595.278 81.5873 476.944 74.6468 357.778 64.2361C238.889 53.8254 119.444 39.9445 59.7222 33.004L0 26.0635V699.289Z" fill="#EAF5F6"/>
<path d="M0 651.532L59.7222 653.849C119.444 656.167 238.889 660.802 357.778 662.347C476.944 663.892 595.278 662.347 714.444 661.317C833.333 660.287 952.778 652.047 1071.67 653.849C1190.83 655.652 1309.17 667.497 1428.33 668.012C1547.22 668.527 1666.67 665.437 1785.56 663.892C1904.72 662.347 2023.06 662.347 2142.22 663.377C2261.11 664.407 2380.56 666.467 2440.28 667.497L2500 668.527V613.935L2440.28 612.39C2380.56 610.845 2261.11 607.755 2142.22 608.27C2023.06 608.785 1904.72 612.905 1785.56 614.192C1666.67 615.48 1586 606.073 1460 583.701C1334 561.329 1279.17 560.556 1160 561.328C1041.11 562.101 833.333 613.935 714.444 616.767C595.278 619.6 476.944 622.175 357.778 623.72C238.889 625.265 119.444 625.78 59.7222 626.038L0 626.295V651.532Z" fill="#A6D5DF" fill-opacity="0.8"/>
<path d="M0 665.653L59.7222 673.152C119.444 680.651 238.889 695.649 357.778 695.649C476.944 695.649 595.278 680.651 714.444 674.089C833.333 667.528 952.778 669.402 1071.67 675.964C1190.83 682.525 1309.17 693.774 1428.33 697.523C1547.22 701.273 1666.67 697.523 1785.56 690.962C1904.72 684.4 2023.06 675.027 2142.22 675.964C2261.11 676.901 2380.56 688.15 2440.28 693.774L2500 699.398V652.53L2440.28 648.78C2380.56 645.031 2261.11 637.532 2142.22 633.782C2023.06 630.033 1904.72 630.033 1785.56 635.657C1666.67 641.281 1547.22 652.53 1428.33 650.655C1309.17 648.78 1190.83 633.782 1071.67 627.221C952.778 620.659 833.333 622.534 714.444 626.283C595.278 630.033 476.944 635.657 357.778 630.033C238.889 624.408 119.444 607.536 59.7222 599.099L0 590.663V665.653Z" fill="#B5DCE4" fill-opacity="0.6"/>
<path d="M0 121L69.5 115.789C139 110.579 278 100.158 416.8 100.902C555.7 101.647 811.1 94.2034 950 100.902C1088.8 107.602 1145 111.323 1284 106.113C1423 100.902 1528 106.113 1666.8 105.369C1805.7 104.624 1944.3 115.045 2083.2 121.744C2222 128.443 2361 131.42 2430.5 132.909L2500 134.398V106.113L2430.5 100.902C2361 95.6921 2222 85.2714 2083.2 80.8053C1944.3 76.3393 1805.7 77.828 1666.8 76.3393C1528 74.8506 1389 70.3846 1250 61.4525C1111 52.5204 972 39.1223 833.2 36.8893C694.3 34.6562 555.7 43.5883 416.8 45.077C278 46.5657 139 40.611 69.5 37.6336L0 34.6562V121Z" fill="#A6D5DF" fill-opacity="0.5"/>
<path d="M0 129.128L69.5 131.491C139 133.854 278 138.58 416.8 135.272C555.7 131.964 694.3 120.621 833.2 115.659C972 110.697 1111 112.114 1250 123.221C1389 134.327 1528 155.121 1666.8 158.902C1805.7 162.683 1944.3 149.45 2083.2 141.179C2222 132.909 2361 129.601 2430.5 127.947L2500 126.292V100.299L2430.5 99.8268C2361 99.3542 2222 98.409 2083.2 96.2823C1944.3 94.1555 1805.7 90.8473 1666.8 91.0836C1528 91.3199 1389 95.1007 1250 96.7549C1111 98.409 972 97.9364 833.2 95.8096C694.3 93.6829 555.7 89.9021 416.8 89.6658C278 89.4295 139 92.7377 69.5 94.3918L0 96.0459V129.128Z" fill="#96CDD9" fill-opacity="0.8"/>
</svg>
