<svg width="2500" height="747" viewBox="0 0 2500 747" fill="none" xmlns="http://www.w3.org/2000/svg">
<path d="M0 254.86L83.3333 239.539C166.667 223.753 333.333 193.11 500 197.753C666.667 202.396 833.333 242.325 1000 227.003C1166.67 211.682 1333.33 140.182 1500 82.146C1666.67 24.1103 1833.33 -20.461 2000 9.71754C2166.67 39.8961 2333.33 144.825 2416.67 197.753L2500 250.217V742.36H2416.67C2333.33 742.36 2166.67 742.36 2000 742.36C1833.33 742.36 1666.67 742.36 1500 742.36C1333.33 742.36 1166.67 742.36 1000 742.36C833.333 742.36 666.667 742.36 500 742.36C333.333 742.36 166.667 742.36 83.3333 742.36H0V254.86Z" fill="#C4E3EA" fill-opacity="0.1"/>
<path d="M0 272.742L83.3333 292.271C166.667 311.335 333.333 350.392 500 351.787C666.667 353.182 833.333 317.844 1000 318.309C1166.67 319.239 1333.33 356.436 1500 331.793C1666.67 306.685 1833.33 220.201 2000 199.742C2166.67 179.748 2333.33 226.245 2416.67 249.494L2500 272.742V742.36H2416.67C2333.33 742.36 2166.67 742.36 2000 742.36C1833.33 742.36 1666.67 742.36 1500 742.36C1333.33 742.36 1166.67 742.36 1000 742.36C833.333 742.36 666.667 742.36 500 742.36C333.333 742.36 166.667 742.36 83.3333 742.36H0V272.742Z" fill="#B5DCE4" fill-opacity="0.1"/>
<path d="M0 662.591L83.3333 662.213C166.667 661.709 333.333 660.953 500 664.859C666.667 668.89 833.333 677.709 1000 674.937C1166.67 672.292 1333.33 657.93 1500 659.064C1666.67 660.071 1833.33 676.449 2000 683.756C2166.67 691.189 2333.33 689.426 2416.67 688.67L2500 687.788V747H2416.67C2333.33 747 2166.67 747 2000 747C1833.33 747 1666.67 747 1500 747C1333.33 747 1166.67 747 1000 747C833.333 747 666.667 747 500 747C333.333 747 166.667 747 83.3333 747H0V662.591Z" fill="white"/>
</svg>
