<svg width="62" height="80" viewBox="0 0 62 80" fill="none" xmlns="http://www.w3.org/2000/svg">
<path d="M28.2498 11.3801C28.1732 10.947 27.9634 10.467 27.7259 10.0298C27.3038 9.25216 27.517 8.22599 28.3002 7.81431C29.1238 7.38142 30.1317 7.85052 30.2829 8.76856C30.3639 9.26008 30.4359 9.77673 30.4682 10.214C30.4897 10.5042 30.4982 10.8194 30.4972 11.1452C30.4897 13.4591 31.7223 15.6537 33.8464 16.5717C34.5773 16.8876 35.1818 17.1678 35.3767 17.3079C35.9834 17.744 38.6363 21.4146 39.8869 23.1954C41.1376 24.9762 42.8827 27.5068 44.4256 30.4837C45.8563 33.244 46.6169 34.8389 47.5636 37.8004C48.7577 41.536 49.6066 43.7464 49.4453 47.6649C49.2957 51.2994 48.3353 53.2574 47.1058 56.6809C45.3849 61.4729 43.577 63.8023 41.1755 68.2921C40.7462 69.0947 40.2509 70.004 39.7479 70.9192C38.1652 73.7987 34.2755 74.3523 31.9184 72.0631C30.2678 70.4601 28.4508 68.7025 26.9547 67.2727C24.4001 64.8313 22.4229 63.9383 20.3824 61.0533C19.0174 59.1233 18.4873 57.8715 17.566 55.6957L17.5644 55.692C16.4977 53.1729 15.9387 51.7029 15.4669 49.0082C14.8125 45.27 14.788 43.0084 15.5501 39.2906C16.1064 36.5763 17.0617 35.2381 17.9369 32.6092C18.7385 30.2015 19.0953 28.8219 19.8663 26.4042C20.9003 23.1619 20.1084 20.4518 22.5945 18.1278C23.2704 17.4959 24.3141 16.9436 25.1982 16.5461C26.245 16.0755 27.2099 15.3742 27.6671 14.3215C28.0587 13.4199 28.4106 12.29 28.2498 11.3801Z" fill="#26445f"/>
<path d="M24.6937 45.3353C23.0766 33.7498 25.9505 15.6097 25.9505 15.6097C25.9505 15.6097 25.0108 33.0253 26.3801 43.8434C27.8308 55.3049 33.3943 72.3925 33.3943 72.3925C33.3943 72.3925 26.237 56.3921 24.6937 45.3353Z" fill="#ADADAD"/>
<path d="M18.596 47.3055C17.5304 39.5974 21.2319 27.2758 21.2319 27.2758C21.2319 27.2758 18.781 39.3767 19.6362 46.5809C20.5423 54.2136 25.9759 65.0778 25.9759 65.0778C25.9759 65.0778 19.613 54.662 18.596 47.3055Z" fill="#ADADAD"/>
<path d="M43.5963 45.0047C43.1386 38.9332 39.9504 30.0045 39.9504 30.0045C39.9504 30.0045 42.5432 38.9434 43.035 44.5977C43.5559 50.5883 42.4141 59.7105 42.4141 59.7105C42.4141 59.7105 44.0331 50.7991 43.5963 45.0047Z" fill="#ADADAD"/>
<path d="M39.1151 44.022C38.1974 32.5176 31.4821 15.6648 31.4821 15.6648C31.4821 15.6648 36.1527 32.235 37.1469 42.9472C38.2003 54.2964 36.4504 71.9466 36.4504 71.9466C36.4504 71.9466 39.9908 55.0014 39.1151 44.022Z" fill="#ADADAD"/>
<path d="M30.6909 10.193C35.9274 11.2213 44.282 10.4378 44.54 10.193C44.7981 9.94823 44.54 9.35979 44.54 9.35979C44.54 9.35979 33.4002 9.21039 27.177 6.23513C23.7585 4.60079 21.2143 -2.35361 19.1156 0.819053C17.9514 2.57893 17.0485 4.98532 19.1156 6.23513C21.1826 7.48495 26.0055 9.27295 30.6909 10.193Z" fill="#ffffff"/>
</svg>
