<svg width="71" height="64" viewBox="0 0 71 64" fill="none" xmlns="http://www.w3.org/2000/svg">
<path d="M19.5626 10.2392L19.0221 9.56148C18.2491 8.59228 17.0768 8.0278 15.8371 8.0278C15.1089 8.0278 14.3941 8.22298 13.7669 8.59302L10.3834 10.5894C9.41372 11.1615 8.54758 11.8934 7.82158 12.754L5.99613 14.9179C5.44188 15.575 4.97466 16.3007 4.60602 17.0772L2.35841 21.8116C1.95202 22.6676 1.67746 23.5791 1.48548 24.507C0.887184 27.3989 0.0379507 29.9229 0.0379507 34.0654C0.0379507 38.8618 -0.303605 40.5748 1.06262 45.0285C2.42884 49.4823 3.30379 51.6837 5.8444 55.3065C7.34534 57.4468 9.98003 59.9965 11.3864 61.2992C12.0106 61.8773 12.7169 62.3571 13.5084 62.6691C14.5913 63.096 16.305 63.667 18.1404 63.8715C21.2144 64.2141 22.5806 63.8715 25.9962 62.8437C29.0194 61.934 32.0426 58.6086 32.6973 57.8566C32.786 57.7546 32.8662 57.6539 32.9471 57.5456C33.5721 56.7078 36.4866 52.7125 37.9507 49.1397C39.8515 44.5013 40 40.9174 40 36.4636C40 32.655 38.7512 27.0927 38.3893 25.561C38.3252 25.2895 38.2479 25.027 38.1544 24.7641C37.6849 23.4449 36.073 19.0842 34.1935 15.9076C32.8679 13.667 30.4478 11.4925 28.8728 10.2142C27.895 9.42063 26.7337 8.90424 25.5093 8.60949L20.7951 7.47461C19.5067 7.16446 18.7921 6.03548 18.4816 7.32377C17.9795 9.4078 22.9916 10.9185 23.6978 12.9425L24.4756 15.1715C24.8044 16.1137 24.9903 17.0998 25.0271 18.0971L25.2609 24.4288C25.2955 25.3669 25.1979 26.3052 24.9708 27.2162L23.2638 34.0654L20.5313 44.0008L18.2784 51.4259C18.1869 51.7273 18.1404 52.0406 18.1404 52.3556V57.1481C18.1404 58.237 16.823 58.7815 16.0542 58.0103C15.8571 57.8126 15.7336 57.5533 15.7045 57.2755L15.1645 52.1302C15.0993 51.5083 15.0925 50.8817 15.1442 50.2586L15.7495 42.9729L17.1157 35.7784L19.5066 28.2412L21.2073 19.712C21.4379 18.5553 21.4621 17.3668 21.2787 16.2016L20.7729 12.9885C20.6146 11.9826 20.1975 11.0352 19.5626 10.2392Z" fill="#26445f"/>
<path d="M55.026 3.06549L54.9684 2.99388C54.4635 2.36551 53.7008 2 52.8947 2C52.4222 2 51.9582 2.12587 51.5504 2.36466L50.4338 3.01854C49.7128 3.44078 49.0682 3.98162 48.527 4.61829L48.3073 4.87684C47.7808 5.49622 47.3367 6.18109 46.9859 6.9144L46.4707 7.99158C46.0593 8.85167 45.7772 9.76749 45.561 10.6961C45.2991 11.8206 45.0185 12.9394 45.0185 14.589C45.0185 16.908 44.8521 17.7362 45.5176 19.8896C46.1832 22.0429 46.6094 23.1073 47.8471 24.8589C48.6739 26.0291 50.2069 27.4523 50.7823 27.9707C50.9323 28.1058 51.0992 28.2176 51.2845 28.2973C51.5299 28.4028 51.9231 28.5586 52.3989 28.7001C53.1512 28.9237 53.837 28.3139 53.837 27.5291C53.837 27.299 53.7767 27.0729 53.6622 26.8734L53.4654 26.5306C53.2715 26.1928 53.1503 25.8184 53.1093 25.4312L52.9382 23.813C52.872 23.1865 52.8651 22.5552 52.9177 21.9274L53.1714 18.8957L53.837 15.4172L55.0017 11.773L55.7469 8.06368C55.9143 7.23035 55.9318 6.37386 55.7987 5.53437L55.6196 4.4052C55.5418 3.91455 55.3371 3.45273 55.026 3.06549Z" fill="#26445f"/>
<path d="M55 23.8311V25.9591C55 26.0888 55.0117 26.2182 55.0349 26.3458C55.2066 27.2901 55.9887 28.0863 56.9401 27.9591C57.4824 27.8865 58.0164 27.7176 58.9531 27.4523C60.3821 27.0475 61.8111 25.6331 62.2523 25.1677C62.3464 25.0685 62.4332 24.9658 62.5175 24.858C62.9344 24.3252 64.2751 22.5543 64.9688 20.9609C65.9253 18.7638 66 17.0661 66 14.9564C66 13.312 65.4779 10.9775 65.2476 10.0277C65.1785 9.7426 65.0914 9.46363 64.9852 9.19016C64.6741 8.38859 63.9308 6.57603 63.0781 5.21938C62.5772 4.42241 61.7657 3.64309 61.057 3.04792C60.1562 2.29154 59.0528 1.84049 57.9057 1.58055L56.2863 1.21359C55.669 1.0737 55.3829 0.543758 55.1752 1.14168C54.8196 2.16593 57.4536 2.8897 57.8305 3.90635L58.1376 4.73483C58.3363 5.27087 58.4489 5.83497 58.4713 6.40621L58.5505 8.42544C58.5895 9.41999 58.4799 10.4148 58.2251 11.3769L57.5781 13.8204L56.2031 18.5267L55.4822 20.7631C55.1627 21.7544 55 22.7896 55 23.8311Z" fill="#26445f"/>
<path d="M52.1468 58.373L52.1672 58.4561C52.3462 59.1854 52.8463 59.7942 53.5269 60.1115C53.9259 60.2975 54.3672 60.3739 54.8055 60.3328L56.0057 60.2202C56.7807 60.1475 57.5379 59.9446 58.2454 59.62L58.5327 59.4882C59.221 59.1725 59.8656 58.7691 60.4504 58.288L61.2335 57.6437C61.9698 57.038 62.614 56.3283 63.2028 55.5785C63.8471 54.7581 64.503 53.9328 65.1325 52.5824C66.0454 50.6244 66.5119 49.9906 66.7975 47.9104C67.0832 45.8303 67.1423 44.7638 66.7868 42.7977C66.5493 41.4842 65.8151 39.6791 65.5333 39.0148C65.4599 38.8418 65.363 38.6817 65.2378 38.5414C65.0721 38.3557 64.8016 38.0694 64.4555 37.7627C63.9083 37.2777 63.0892 37.5227 62.7803 38.1853C62.6897 38.3796 62.6516 38.5942 62.6698 38.8078L62.701 39.1747C62.7317 39.5361 62.6867 39.9 62.5689 40.2431L62.0866 41.6471C61.8891 42.2219 61.6378 42.7767 61.336 43.3042L59.9439 45.7368L58.0127 48.4119L55.5948 51.0304L53.5055 53.869C53.0362 54.5067 52.6842 55.223 52.4662 55.9842L52.1729 57.0081C52.0455 57.453 52.0365 57.9235 52.1468 58.373Z" fill="#26445f"/>
<path d="M60.388 39.7526L61.1802 38.0533C61.2313 37.9438 61.2723 37.8299 61.303 37.7131C61.5297 36.8481 61.1828 35.8681 60.3294 35.601C59.8429 35.4487 59.3255 35.3812 58.4302 35.2365C57.0748 35.0175 55.3281 35.6378 54.7583 35.8616C54.631 35.9116 54.5092 35.9679 54.3874 36.03C53.8119 36.3233 52.0001 37.2847 50.7957 38.3495C49.1233 39.8281 48.3919 41.2321 47.5615 43.0134C46.921 44.3873 46.4461 46.5329 46.2624 47.4426C46.2043 47.7301 46.1655 48.0194 46.1465 48.3121C46.0936 49.1265 46.0121 50.9224 46.1957 52.385C46.2849 53.095 46.5136 54.1098 46.7589 55.0819C47.2202 56.9098 48.66 58.311 50.4739 58.8246C50.867 58.9359 51.4251 59.0548 51.3219 58.6595C51.2982 58.5688 51.2597 58.4572 51.2022 58.3204C50.8214 57.4138 50.457 56.4907 50.3744 55.5108C50.2873 54.4773 50.4512 53.4381 50.8523 52.4816L51.2409 51.5549C51.6257 50.637 52.1455 49.7817 52.7829 49.0173L54.2253 47.2877L57.2387 43.8552L58.6546 42.3295C59.3631 41.566 59.9479 40.6966 60.388 39.7526Z" fill="#26445f"/>
</svg>
