<svg width="77" height="82" viewBox="0 0 77 82" fill="none" xmlns="http://www.w3.org/2000/svg">
<path d="M8.0865 17.7414L6.452 12.8272C5.89561 11.1544 6.2613 9.31213 7.41447 7.97864L8.95951 6.19198C9.31873 5.77659 9.74322 5.42371 10.2171 5.14625C11.8451 4.19315 14.2455 2.78363 14.664 2.52155C14.9952 2.31406 16.6628 1.85899 18.2038 1.46984C19.4384 1.15806 20.7434 1.35489 21.8457 1.99227L26.199 4.50928C27.3492 5.1743 28.7439 5.26414 29.9699 4.75219C30.4895 4.53521 31.0468 4.42348 31.6099 4.42348H36.5263C37.9965 4.42348 40.4806 8.7836 41.9767 11.8492C42.3959 12.7081 43.0236 13.4489 43.8246 13.9704C46.5144 15.7217 50.3811 18.2369 50.7976 18.4978C51.4049 18.8782 59.6032 19.2585 60.5142 19.2585C61.1304 19.2585 66.0604 19.6212 69.6488 20.5766C70.826 20.8901 71.7455 21.762 72.2893 22.8521L75.503 29.2935C75.8192 29.9273 75.8499 30.666 75.5873 31.3238C75.2764 32.1027 74.5981 32.671 73.7885 32.8897C69.5516 34.0342 60.2527 37.2459 59.6032 37.5171C58.6923 37.8975 54.7449 43.2229 54.7449 43.9837C54.7449 44.3052 53.8975 45.3486 52.8742 46.4858C51.342 48.1884 51.011 50.6887 52.214 52.6379C53.2643 54.3398 54.3219 56.0064 54.7449 56.5364C55.3381 57.2795 55.9044 60.9288 56.9678 63.6285C57.405 64.7385 57.6793 65.95 57.9076 67.1209C58.3537 69.4091 59.6032 72.3401 59.6032 73.2734C59.6032 74.795 56.5668 78.5988 55.9595 78.5988C55.3522 78.5988 47.7611 80.1204 46.2429 80.8811C45.0773 81.4652 39.7171 79.7605 36.8713 78.7256C36.6403 78.6415 36.4182 78.5394 36.2028 78.4209L25.502 72.5356C24.5758 72.0263 23.8349 71.2365 23.3857 70.2797L21.0405 65.2853L16.803 58.1033C16.2301 57.1323 15.1867 56.5364 14.0593 56.5364C13.2755 56.5364 12.5192 56.8254 11.935 57.3481L8.78362 60.168C8.65546 60.2827 8.51873 60.3874 8.37462 60.4813L3.82929 63.4422C2.83374 64.0908 1.56274 63.1704 1.86826 62.0222C1.89659 61.9157 1.93838 61.8133 1.99261 61.7174L6.24176 54.2024C6.78088 53.249 6.99199 52.1448 6.84265 51.0597L5.55466 41.7014V29.8989C5.55466 29.4015 5.62887 28.9069 5.77486 28.4314L8.12184 20.787C8.42706 19.7928 8.41471 18.7282 8.0865 17.7414Z" stroke="#e5b23b" stroke-width="2" stroke-linecap="round" stroke-dasharray="2 3"/>
</svg>
