<svg width="100" height="46" viewBox="0 0 100 46" fill="none" xmlns="http://www.w3.org/2000/svg">
<path d="M63.2679 0.11151C66.3907 2.4565 69.2679 8.11151 69.2679 8.11151H41.2679C41.2679 8.11151 39.0483 5.5741 38.2679 3.61151C37.8703 2.61188 62.2678 -0.639449 63.2679 0.11151Z" fill="#26445f"/>
<path d="M55.2676 45.1118C56.2678 44.6118 59.2676 41.3785 59.2676 41.3785L37.2676 37.1118C37.2676 37.1118 34.9125 37.5511 34.2676 38.7118C33.7676 39.6118 54.3733 45.5589 55.2676 45.1118Z" fill="#26445f"/>
<path d="M35.7679 9.63527C30.139 11.9429 24.0724 15.0972 21.5159 16.4611C20.7642 16.8621 19.8453 16.7545 19.2036 16.1941C17.6277 14.8176 14.6079 12.2438 12.2679 10.6348C7.87627 7.6151 1.76788 4.15782 0.26787 4.13482C-1.23214 4.11182 9.39041 12.415 10.7678 18.1119C11.915 22.8568 11.7682 24.3339 10.7678 29.1118C9.4613 35.3517 2.26792 42.1578 0.26787 44.1348C-1.73218 46.1118 7.98429 41.5029 12.2679 38.6348C14.841 36.912 18.0267 33.8645 19.4793 32.4272C19.9737 31.938 20.6783 31.7267 21.353 31.8951C23.5167 32.4352 28.4851 33.7815 32.2679 35.6115C41.6894 40.1694 47.8028 42.2617 58.2679 42.1115C68.1657 41.9694 74.4498 40.9778 82.7679 35.6115C92.1382 29.5663 96.2093 26.8102 97.9638 25.5757C98.4867 25.2078 98.283 24.5361 97.6456 24.487C96.7913 24.4213 96.7235 23.1989 97.5583 23.0063C98.202 22.8577 98.3378 22.0579 97.7596 21.7386C96.5267 21.0578 94.3792 19.9176 90.7679 18.1119C86.9207 16.1884 83.7679 12.0887 75.7679 8.61187C69.3759 5.83387 59.7337 4.90951 52.7679 5.13527C45.9039 5.35772 42.1222 7.03025 35.7679 9.63527Z" fill="#26445f"/>
<circle cx="78.7678" cy="18.6118" r="2.5" fill="#adadad"/>
<path d="M72.7678 9.61182C72.7678 9.61182 69.0182 19.4123 70.2678 25.6118C71.3732 31.0964 77.2678 38.1118 77.2678 38.1118" stroke="#adadad" stroke-width="0.75" stroke-linecap="round"/>
<circle cx="78.7678" cy="18.6118" r="1.5" fill="#26445f"/>
</svg>
