<svg width="65" height="70" viewBox="0 0 65 70" fill="none" xmlns="http://www.w3.org/2000/svg">
<path d="M64.157 54.1335L60.4769 18.854C60.4308 18.3274 60.1876 17.8381 59.7965 17.4851L40.53 0.529755C40.2264 0.260078 39.8518 0.0843246 39.4514 0.023617C39.0509 -0.0370906 38.6415 0.0198311 38.2724 0.187538L13.3465 11.7918C12.9923 11.9514 12.6916 12.2107 12.4806 12.5385L0.357869 30.7383C0.0726281 31.1566 -0.0485515 31.6664 0.0176904 32.1694L4.4091 68.1333C4.46933 68.6449 4.71304 69.1168 5.09452 69.4605C5.476 69.8042 5.96903 69.996 6.4811 70H48.6015C48.8777 70.001 49.1512 69.9465 49.4062 69.8397C49.6611 69.7328 49.8922 69.5758 50.0859 69.3778L63.5385 55.8446C63.7617 55.6237 63.9331 55.3555 64.0401 55.0594C64.1471 54.7634 64.187 54.4471 64.157 54.1335V54.1335ZM38.7981 4.60526L53.9516 17.9518L40.1279 21.2495L19.7172 13.5029L38.7981 4.60526ZM46.0656 65.7689H10.7179L38.8291 28.4361L46.0656 65.7689ZM4.25447 32.4182L15.0474 16.334L36.6952 24.485L7.93459 62.4712L4.25447 32.4182ZM49.8694 63.529L42.4473 25.045L56.5493 21.685L59.9202 53.6669L49.8694 63.529Z" fill="#26445f"/>
</svg>
