<svg
   width="336.82812mm"
   height="229.091mm"
   viewBox="0 0 336.82812 229.091"
   version="1.1"
   id="svg5"
   xml:space="preserve"
   xmlns="http://www.w3.org/2000/svg"
   ><defs
     id="defs2" /><g
     transform="translate(497.60767,-80.421057)"><path
       style="fill:#174f9e;stroke-width:0.264583;fill-opacity:1"
       d="m -214.74005,309.22718 c -0.0751,-0.19564 -0.42516,-0.35571 -0.77796,-0.35571 -0.35279,0 -0.71514,-0.192 -0.80518,-0.42667 -0.12575,-0.32769 -0.24762,-0.35706 -0.5253,-0.12661 -0.5897,0.48942 -1.74884,-0.0894 -1.74884,-0.87333 0,-0.79643 -0.47813,-0.99132 -1.23227,-0.50229 -0.38725,0.25113 -0.62662,0.27985 -0.74438,0.0893 -0.0955,-0.15446 0.0127,-0.35226 0.24008,-0.43956 0.494,-0.18957 0.55076,-0.62764 0.0829,-0.64009 -0.57171,-0.0152 -1.65391,-1.14315 -2.21281,-2.3063 -0.0874,-0.1819 -0.0875,-0.51671 0,-0.74401 0.14377,-0.37466 0.21375,-0.37466 0.74863,0 0.32454,0.2273 0.8513,0.41328 1.1706,0.41328 0.3193,0 0.62021,0.10472 0.66873,0.2327 0.17511,0.46202 4.97946,2.67062 6.74656,3.10145 1.35972,0.33151 2.05433,0.67504 2.80009,1.3848 0.54549,0.51916 0.90225,1.03347 0.79279,1.14292 -0.10943,0.10944 -1.29426,0.24552 -2.63292,0.30239 -1.86796,0.0794 -2.46568,0.0207 -2.57042,-0.2523 z m 11.02492,-4.57461 c -0.87614,-0.73087 -0.53369,-1.33711 0.64704,-1.14551 0.89178,0.14472 0.92154,0.12507 0.63151,-0.41686 -0.29716,-0.55526 -0.26295,-0.56873 1.44507,-0.56873 1.59978,0 1.81893,0.0695 2.56138,0.81192 0.71326,0.71326 0.76481,0.85905 0.42413,1.19971 -0.27692,0.27693 -0.56732,0.32137 -1.01584,0.15546 -0.4073,-0.15068 -1.04334,-0.10737 -1.80946,0.1232 -1.56501,0.471 -2.16832,0.4377 -2.88383,-0.15919 z m -19.63229,-3.59027 c -0.5025,-0.35789 -1.02116,-0.84287 -1.15261,-1.07773 -0.19896,-0.35557 -0.13464,-0.39797 0.38447,-0.25341 1.98525,0.55285 2.8965,1.01484 2.81768,1.42854 -0.12716,0.66761 -1.03608,0.62442 -2.04954,-0.0974 z m -66.25755,-12.59694 c -0.29171,-0.41647 -0.56231,-0.5201 -1.04306,-0.39943 -0.4103,0.10297 -0.76439,0.0241 -0.96231,-0.21438 -0.17223,-0.20752 -0.6705,-0.4558 -1.10727,-0.55173 -0.52487,-0.11529 -0.74687,-0.2976 -0.65474,-0.53771 0.16194,-0.42198 -0.25601,-0.77329 -0.48301,-0.40599 -0.0881,0.14251 -0.5166,0.0645 -1.01047,-0.18405 -0.47165,-0.23732 -1.12543,-0.39773 -1.45286,-0.35648 -0.66774,0.0841 -0.81291,-0.35192 -0.19598,-0.58866 0.21963,-0.0843 0.36846,-0.30331 0.33073,-0.48675 -0.0503,-0.24434 0.32726,-0.31122 1.41205,-0.25014 1.14582,0.0645 1.58738,-0.0234 1.95258,-0.38855 0.45284,-0.45285 0.43577,-0.48501 -0.42232,-0.79543 -1.29612,-0.46888 -1.4357,-0.44071 -1.80219,0.36364 l -0.33142,0.7274 -0.65821,-1.11455 c -0.93634,-1.5855 -2.89551,-2.45691 -5.52383,-2.45691 -1.43719,0 -2.0446,0.11109 -2.36629,0.43278 -0.323,0.323 -0.50901,0.35656 -0.73327,0.13229 -0.16527,-0.16527 -0.54805,-0.30049 -0.85062,-0.30049 -0.30258,0 -0.72525,-0.24775 -0.93927,-0.55056 -0.63873,-0.90369 -1.29084,-1.14098 -1.81988,-0.66221 -0.4217,0.38163 -0.65901,0.34985 -2.80574,-0.37579 -2.70321,-0.91374 -3.10302,-0.94452 -4.79728,-0.3693 -1.14319,0.38812 -1.321,0.38812 -2.13489,0 -0.48832,-0.23287 -1.48207,-0.42339 -2.20834,-0.42339 -1.19464,0 -1.34665,-0.0688 -1.59503,-0.7221 -0.19193,-0.50481 -0.18996,-0.7503 0.007,-0.8158 0.1546,-0.0515 0.28109,-0.1991 0.28109,-0.32793 0,-0.12882 -0.18432,-0.1635 -0.40959,-0.077 -0.23642,0.0907 -0.56844,-0.0526 -0.78533,-0.33903 -0.32141,-0.42445 -0.37697,-0.43394 -0.38417,-0.0656 -0.0151,0.77435 -0.75397,1.07594 -2.97818,1.21568 -3.49868,0.21982 -3.81835,0.19595 -4.58211,-0.34216 -1.1035,-0.77747 -1.77102,-1.11268 -3.36693,-1.69081 -0.60618,-0.2196 -0.82594,-0.17171 -1.27564,0.27799 -0.39718,0.39718 -0.81867,0.52341 -1.56723,0.46936 -0.67615,-0.0488 -1.19264,0.0787 -1.52065,0.3756 -0.47218,0.42731 -0.52563,0.41042 -1.08178,-0.34182 -0.43566,-0.58927 -0.79923,-0.79134 -1.4238,-0.79134 -0.65236,0 -0.76819,-0.0706 -0.52124,-0.3175 0.44474,-0.44474 0.39822,-0.87262 -0.0541,-0.49725 -0.21208,0.17601 -0.66717,0.23418 -1.06026,0.13552 -0.44166,-0.11085 -0.92193,-0.02 -1.33892,0.25319 -0.85768,0.56197 -0.84821,0.56634 -1.04494,-0.48234 -0.13843,-0.73788 -0.341,-0.96468 -1.07915,-1.2083 -1.30969,-0.43224 -3.26767,-2.70197 -3.48084,-4.03508 -0.17116,-1.07036 -1.97545,-3.75576 -3.5643,-5.30488 -0.41802,-0.40755 -0.76002,-0.8413 -0.76002,-0.96388 0,-0.37327 -0.87103,-0.58255 -1.07189,-0.25754 -0.14169,0.22925 -0.41938,0.22812 -1.12447,-0.005 -1.03355,-0.3411 -1.40325,-0.68811 -1.54549,-1.45064 -0.052,-0.27899 -0.26241,-0.56312 -0.4675,-0.63142 -0.25407,-0.0846 -0.32099,0.0111 -0.21,0.30033 0.0896,0.23348 0.0598,0.48824 -0.0663,0.56613 -0.54271,0.33541 -1.16527,-0.3246 -2.14592,-2.27501 -0.97048,-1.9302 -1.10769,-2.083 -1.8705,-2.083 -0.70173,0 -0.77459,-0.0586 -0.49382,-0.39687 0.20755,-0.25008 0.24019,-0.51921 0.0882,-0.72761 -0.28953,-0.39709 -0.29092,-2.05095 -0.002,-2.51051 0.1409,-0.2242 0.0773,-0.27833 -0.20141,-0.17138 -0.22405,0.086 -0.93604,-0.15352 -1.58221,-0.5322 -0.64617,-0.37868 -1.41708,-0.68851 -1.71313,-0.68851 -0.29605,0 -1.1759,-0.23857 -1.95524,-0.53016 -1.11702,-0.41793 -1.53918,-0.7476 -1.9943,-1.55737 -0.74188,-1.32001 -0.72702,-1.75456 0.0841,-2.45985 0.798,-0.69385 0.84867,-1.00829 0.13229,-0.82095 -0.3989,0.10432 -0.52916,0.008 -0.52916,-0.39079 0,-0.30665 -0.22252,-0.58735 -0.52917,-0.66754 -0.3535,-0.0924 -0.52917,-0.3609 -0.52917,-0.80865 0,-0.46919 -0.49903,-1.17116 -1.66344,-2.33988 -2.54518,-2.55461 -3.3815,-3.77486 -4.01227,-5.85417 -0.5284,-1.74183 -0.68383,-1.97162 -1.85807,-2.74691 -1.43428,-0.94699 -1.76905,-1.35215 -1.59639,-1.93206 0.28938,-0.97198 -2.04224,-2.38125 -3.93974,-2.38125 -1.48734,0 -3.44158,-1.03729 -3.31221,-1.75809 0.10078,-0.56143 -0.0532,-0.88775 -0.41892,-0.88775 -0.21828,0 -0.39687,0.1786 -0.39687,0.39688 0,0.48186 -1.9806,0.56651 -2.27075,0.097 -0.12497,-0.20222 -0.85466,-0.25394 -2.24146,-0.15889 -2.00282,0.13728 -2.0908,0.1176 -3.39175,-0.75851 -0.86137,-0.58008 -1.65172,-0.89943 -2.22595,-0.89943 -0.60563,0 -1.08742,-0.20978 -1.50662,-0.65599 -0.53831,-0.573 -0.65392,-0.6045 -0.91388,-0.24897 -0.35812,0.48976 -1.5439,0.14485 -1.9409,-0.56454 -0.22436,-0.40091 -0.26121,-0.40223 -0.40993,-0.0147 -0.20049,0.52246 -1.58123,0.57222 -1.99642,0.0719 -0.16153,-0.19463 -0.72898,-0.37024 -1.26101,-0.39024 -1.22773,-0.0462 -2.03649,-0.71593 -1.67657,-1.38845 0.14084,-0.26316 0.24359,-1.05185 0.22833,-1.75264 l -0.0277,-1.27416 -0.32554,1.05833 c -0.46567,1.51387 -1.13533,1.51773 -2.5441,0.0147 -0.62134,-0.66293 -1.22205,-1.20532 -1.33491,-1.20532 -0.11287,0 -0.18279,0.32742 -0.1554,0.7276 0.0423,0.61713 -0.0642,0.74066 -0.70119,0.81358 -0.97035,0.11109 -1.66197,-0.52526 -1.88959,-1.73861 -0.13305,-0.70921 -0.24141,-0.85869 -0.41903,-0.57802 -0.33313,0.52642 -0.3067,1.66891 0.0468,2.02239 0.16194,0.16195 0.20891,0.43284 0.10438,0.60198 -0.23611,0.38203 -1.33124,-0.58413 -1.89868,-1.67507 -0.21519,-0.41371 -0.43703,-0.70641 -0.49298,-0.65046 -0.24771,0.2477 0.63934,3.0932 1.27872,4.10192 0.87939,1.38736 0.43263,1.89989 -0.58962,0.67641 -0.5296,-0.63385 -0.83381,-0.78528 -1.37087,-0.68239 -0.63234,0.12114 -0.71587,0.0304 -0.996,-1.08209 -0.16817,-0.66788 -0.36585,-1.21433 -0.43929,-1.21433 -0.0734,0 -0.0588,0.29766 0.0325,0.66146 0.10071,0.40124 0.053,0.66146 -0.12115,0.66146 -0.15794,0 -0.4822,-0.29766 -0.72057,-0.66146 -0.23837,-0.3638 -0.53877,-0.66146 -0.66756,-0.66146 -0.32435,0 -0.29452,1.77408 0.0404,2.3998 0.22827,0.42652 0.16273,0.56385 -0.38904,0.81525 -0.51016,0.23245 -0.75633,0.22534 -1.06489,-0.0307 -0.22074,-0.18319 -0.58124,-0.26405 -0.80112,-0.17967 -0.46894,0.17995 -4.78962,-1.41639 -6.43114,-2.37608 -0.86549,-0.50599 -1.28303,-0.9972 -1.75519,-2.06485 -0.48836,-1.10426 -0.80452,-1.46539 -1.49302,-1.7054 -0.4804,-0.16747 -1.11726,-0.51136 -1.41524,-0.76421 -0.52266,-0.44348 -0.52794,-0.44191 -0.14948,0.0443 0.21577,0.27721 0.77927,0.66576 1.25221,0.86345 0.47342,0.19789 0.8599,0.55405 0.8599,0.79244 0,0.23814 0.45952,1.23001 1.02115,2.20415 0.56163,0.97414 1.10705,2.22905 1.21204,2.78869 0.10499,0.55965 0.6575,1.66916 1.22781,2.46558 0.5703,0.79642 1.03692,1.65976 1.03692,1.91852 0,0.79993 -0.53917,0.85571 -1.29275,0.13374 -0.39632,-0.3797 -0.89053,-0.69036 -1.09825,-0.69036 -0.20772,0 0.0757,0.30807 0.62983,0.68462 0.96772,0.65758 0.98942,0.7046 0.54958,1.19062 -0.6696,0.7399 -2.69878,0.67858 -4.29396,-0.12976 -1.07576,-0.54512 -1.50715,-0.6155 -3.02581,-0.49359 -1.76371,0.14157 -1.77316,0.13869 -2.24231,-0.68311 -0.42132,-0.73804 -1.82189,-1.55517 -2.13275,-1.24431 -0.0663,0.0663 0.19215,0.1991 0.5744,0.29504 0.38226,0.0959 0.88201,0.491 1.11056,0.8779 0.4222,0.71474 2.49021,2.04119 2.49021,1.59727 0,-0.52273 1.62356,-0.23059 2.26098,0.40683 0.82402,0.82402 0.8485,1.30029 0.0541,1.05296 -0.58722,-0.18283 -0.58665,-0.17826 0.0421,0.3362 0.72411,0.59248 0.56012,1.13641 -0.34262,1.13641 -0.51136,0 -0.58341,0.11319 -0.48759,0.76603 l 0.11243,0.76602 -3.13482,0.17716 c -1.72415,0.0974 -3.43247,0.28124 -3.79627,0.40846 -0.3638,0.12722 -1.19724,0.30816 -1.85208,0.40208 -0.65485,0.0939 -2.30999,0.47005 -3.67809,0.83583 l -2.48747,0.66504 -1.8549,-0.74672 c -2.45187,-0.98705 -5.30232,-1.05258 -6.98411,-0.16056 -1.21849,0.64628 -3.02975,0.78252 -3.458,0.2601 -0.14911,-0.1819 -0.41346,-0.86651 -0.58743,-1.52136 -0.4748,-1.78713 -0.67827,-1.93851 -2.34252,-1.74291 -1.4085,0.16554 -2.94915,0.84068 -2.94915,1.29237 0,0.12602 0.40101,-0.0187 0.89112,-0.32163 0.62163,-0.38418 1.33381,-0.55074 2.35486,-0.55074 h 1.46374 l 0.32949,1.37345 c 0.6106,2.54528 2.20428,3.25067 4.3535,1.92694 1.61911,-0.99724 2.94786,-0.88782 5.20144,0.42834 1.05074,0.61367 2.89368,1.36775 4.25314,1.74027 2.02711,0.55547 2.6807,0.88217 4.21672,2.10773 0.99977,0.79771 2.4686,2.31508 3.26406,3.37194 l 1.44628,1.92156 0.0696,2.32635 c 0.0661,2.21026 0.0366,2.35134 -0.59187,2.82715 -0.3638,0.27544 -1.43536,0.63054 -2.38125,0.78912 -0.94588,0.15857 -2.20387,0.51493 -2.79551,0.7919 -0.59165,0.27697 -1.22529,0.50358 -1.40809,0.50358 -0.49123,0 -2.67556,1.33131 -2.67556,1.6307 0,0.14163 -1.16086,0.7992 -2.57969,1.46128 -1.41883,0.66208 -2.89573,1.42785 -3.28199,1.70173 -1.1273,0.7993 -2.46573,0.64525 -3.96668,-0.45654 -0.79185,-0.58128 -1.99546,-1.13559 -3.07815,-1.41763 -0.97783,-0.25471 -2.23512,-0.65705 -2.79399,-0.89408 -0.72394,-0.30704 -1.1564,-0.35589 -1.50396,-0.16988 -0.26831,0.1436 -1.12074,0.264 -1.8943,0.26756 -0.77355,0.004 -1.94223,0.13987 -2.59708,0.30293 -1.21564,0.3027 -5.20001,0.53149 -8.69506,0.4993 -1.7509,-0.0161 -2.04949,-0.0982 -2.9485,-0.8102 -1.34764,-1.06736 -2.37066,-1.03545 -4.31083,0.13447 -2.25746,1.36124 -2.74945,1.27921 -5.4268,-0.90486 l -1.10839,-0.90418 v -24.5249 -24.52491 l -0.6797,-0.50008 c -0.67629,-0.49757 -1.48487,-1.93644 -1.57932,-2.81042 -0.0272,-0.25204 -0.1708,-0.60923 -0.31902,-0.79375 -0.37362,-0.46511 -0.21152,-2.35026 0.23187,-2.69652 0.20059,-0.15664 0.64354,-0.83652 0.98434,-1.51082 0.50396,-0.99715 0.56369,-1.33052 0.31996,-1.78593 -0.24467,-0.45717 -0.22512,-0.55994 0.10652,-0.55994 0.2234,0 0.42154,-0.0893 0.4403,-0.19843 0.0188,-0.10914 0.10301,-0.55563 0.18721,-0.99219 0.0842,-0.43656 0.15815,-19.54609 0.16432,-42.46563 0.01,-36.85312 0.0571,-41.67368 0.4081,-41.68754 0.21828,-0.009 0.65255,-0.10206 0.96504,-0.20765 0.9167,-0.30975 5.10049,0.84925 6.22079,1.7233 0.53246,0.41542 3.33043,1.72284 6.21771,2.90536 3.60151,1.47506 5.42519,2.36273 5.80895,2.82747 0.48529,0.58771 0.73733,0.66797 1.90347,0.60607 1.60059,-0.085 2.96113,0.71494 2.96113,1.74092 0,0.5133 0.10314,0.59085 0.61495,0.46239 0.63594,-0.15961 5.83731,1.49987 7.75676,2.47477 0.56155,0.28522 3.52131,1.29039 6.57724,2.23372 4.42611,1.36629 6.06238,1.7518 8.04458,1.89535 1.36858,0.0991 2.68605,0.28602 2.92771,0.41536 0.24167,0.12933 1.83199,0.49468 3.53406,0.81188 l 3.09467,0.57673 1.12179,1.24771 c 1.22794,1.36577 2.16788,1.98586 2.60276,1.71709 0.15415,-0.0953 0.4561,0.0778 0.671,0.38464 0.21614,0.30859 0.67959,0.55785 1.03719,0.55785 0.6205,0 1.70479,0.81585 1.70479,1.28274 0,0.12341 0.47573,0.43892 1.05718,0.70112 0.58145,0.2622 1.36142,0.87559 1.73326,1.3631 0.65584,0.85986 0.73305,0.8865 2.58083,0.89043 1.18846,0.003 1.76764,0.0909 1.54014,0.235 -0.49752,0.31512 -0.0901,0.89613 0.51705,0.73735 0.26927,-0.0704 0.62651,0.037 0.79387,0.23862 0.3791,0.45679 0.731,0.25411 1.05967,-0.61034 l 0.25352,-0.66683 2.57443,0.18078 c 3.01284,0.21155 3.50046,0.54354 3.50046,2.38321 0,1.41445 0.46096,1.82898 2.46506,2.21679 0.84646,0.1638 2.27521,0.68796 3.175,1.16479 1.42946,0.75753 1.62696,0.95481 1.56453,1.5628 -0.0561,0.54655 0.0672,0.73063 0.57492,0.85806 0.88782,0.22283 2.27466,1.43372 2.27466,1.98608 0,0.69823 1.58498,2.0334 2.91042,2.45171 0.76171,0.2404 1.66719,0.31651 2.51354,0.21126 0.7276,-0.0905 1.52037,-0.11392 1.76171,-0.0521 0.24134,0.0618 1.24005,1.02409 2.21936,2.13839 0.97931,1.1143 1.99382,2.14506 2.25447,2.29058 0.26065,0.14552 0.82395,0.74084 1.25178,1.32292 1.10424,1.50238 2.68763,3.05605 3.9747,3.90009 1.12535,0.73798 1.31916,1.28071 0.86838,2.43168 -0.11006,0.28102 -0.0586,1.11994 0.11448,1.86427 0.38555,1.65859 0.0827,4.36067 -0.63822,5.69458 -0.6498,1.20231 -0.98343,3.85768 -0.55026,4.37962 0.17477,0.21058 0.65262,0.38288 1.0619,0.38288 0.40927,0 1.05523,0.11829 1.43546,0.26285 0.49895,0.1897 0.93215,0.16223 1.55668,-0.0987 0.74799,-0.31254 0.97052,-0.3059 1.64099,0.0489 0.42661,0.22576 1.12875,0.45059 1.56031,0.49961 0.43157,0.049 1.27283,0.32545 1.86948,0.61428 0.59664,0.28883 1.32106,0.52515 1.60981,0.52515 0.28876,0 0.63812,0.10687 0.77636,0.23748 0.13825,0.13062 0.72761,0.30464 1.30969,0.38672 0.58208,0.0821 1.52851,0.22913 2.10316,0.32678 0.96583,0.16411 2.69048,1.18915 4.43483,2.63583 0.39444,0.32713 1.2874,0.80486 1.98437,1.06163 0.69698,0.25677 1.51302,0.68514 1.81344,0.95192 0.34692,0.30807 0.95522,0.48505 1.66714,0.48505 0.93134,0 1.26407,0.15172 1.96732,0.89708 1.04561,1.10821 1.90272,1.56246 2.55655,1.35494 0.29993,-0.0952 0.58668,-0.004 0.71762,0.22764 0.26811,0.47479 2.6368,0.64351 3.39307,0.2417 0.75548,-0.4014 2.62719,-0.36989 3.85976,0.065 1.54762,0.54603 4.3055,3.11673 5.6516,5.26802 0.76592,1.22406 1.53934,2.09415 2.24473,2.52528 0.59191,0.36178 1.0762,0.85792 1.0762,1.10254 0,0.24463 0.23851,1.00118 0.53001,1.68124 0.29151,0.68005 0.45201,1.36267 0.35668,1.51691 -0.0953,0.15426 -0.18501,1.24095 -0.19928,2.41487 l -0.026,2.13441 -1.05833,0.31902 c -0.58208,0.17547 -1.83551,0.32818 -2.7854,0.33936 -1.14616,0.0135 -1.93584,0.16657 -2.34779,0.45511 -0.5185,0.36317 -0.82231,0.38828 -1.84481,0.1525 -0.67324,-0.15524 -2.19086,-0.21588 -3.37249,-0.13474 -1.64375,0.11288 -2.49976,0.037 -3.64425,-0.32297 -1.40325,-0.44138 -1.57924,-0.44357 -2.84292,-0.0354 -0.74088,0.23928 -1.49661,0.43505 -1.67938,0.43505 -0.40295,0 -0.76842,2.78345 -0.5095,3.88037 0.25529,1.08152 1.43152,2.26246 2.08912,2.09748 0.48547,-0.1218 0.53119,-0.0103 0.51024,1.24366 -0.0203,1.21454 0.0818,1.48873 0.86351,2.31834 0.77042,0.81768 0.89002,1.12951 0.91333,2.38125 0.0174,0.93629 0.25791,1.93394 0.68716,2.85075 0.58302,1.24526 0.73435,1.39182 1.29249,1.25173 0.34768,-0.0873 0.63215,-0.0562 0.63215,0.0691 0,0.12525 0.46393,0.36674 1.03095,0.53662 0.56703,0.16988 1.09907,0.48639 1.18232,0.70334 0.0833,0.21695 0.28115,0.39446 0.43977,0.39446 0.52199,0 2.32664,1.62805 2.63807,2.3799 0.204,0.4925 0.56165,0.78825 1.07816,0.89155 0.64997,0.13 0.82382,0.34501 1.09314,1.35198 0.17614,0.65857 0.47042,1.1974 0.65395,1.1974 0.19859,0 0.26726,-0.17315 0.16959,-0.42765 -0.13842,-0.36072 -0.078,-0.38156 0.38615,-0.13317 0.34078,0.18238 0.70866,0.83937 0.96634,1.72577 l 0.41609,1.43128 1.31054,0.18024 c 0.7208,0.0991 1.44276,0.0985 1.60436,-10e-4 0.39088,-0.24157 3.17015,1.6191 3.17015,2.12236 0,0.40284 0.81655,0.53323 2.57969,0.41195 0.68963,-0.0474 0.8599,0.0405 0.8599,0.44436 0,0.27693 0.29765,1.37866 0.66145,2.44828 0.36381,1.06963 0.66146,2.39776 0.66146,2.95141 0,0.55365 0.19395,1.49136 0.431,2.08379 0.28676,0.71669 0.37891,1.45711 0.27537,2.21253 -0.14146,1.03207 -0.0854,1.18733 0.61662,1.70633 0.42474,0.31402 0.96423,0.57094 1.19887,0.57094 0.75816,0 2.73655,1.33828 3.25584,2.20241 0.27773,0.46217 0.58327,1.54684 0.67897,2.41038 0.0957,0.86354 0.27268,1.69698 0.39331,1.85208 0.12062,0.1551 0.29179,0.66483 0.38038,1.13272 0.20148,1.06412 1.2215,2.67078 1.81979,2.86638 2.16083,0.70646 4.8385,0.51468 5.89881,-0.42249 0.40331,-0.35647 0.93821,-0.45789 2.24896,-0.42644 1.5106,0.0362 1.83758,-0.0488 2.68818,-0.69909 0.6002,-0.45887 1.03367,-0.63473 1.14009,-0.46253 0.0944,0.15281 0.53782,0.27783 0.98529,0.27783 0.44748,0 1.28251,0.1405 1.85564,0.31221 1.00688,0.30167 1.03817,0.34584 0.92696,1.30857 -0.0835,0.72277 -0.005,1.03852 0.28505,1.1499 0.33091,0.12699 0.29376,0.26679 -0.21478,0.8081 -0.33821,0.36001 -0.75102,0.65456 -0.91736,0.65456 -0.16634,0 -0.50479,0.64193 -0.75211,1.42653 -0.24732,0.78459 -0.62625,1.57307 -0.84206,1.75218 -0.5045,0.4187 -0.49595,1.0497 0.0321,2.36942 0.35896,0.89714 0.59384,1.10606 1.52135,1.35322 0.60327,0.16075 1.76728,0.69777 2.58668,1.19338 0.88471,0.53511 1.83941,0.9011 2.35055,0.9011 0.4734,0 1.31315,0.13555 1.8661,0.30122 0.71683,0.21476 1.31511,0.22259 2.08464,0.0273 0.855,-0.21702 1.46408,-0.17497 2.93102,0.20236 1.03156,0.26534 2.29556,0.41678 2.85377,0.34191 0.82064,-0.11007 1.15767,-0.003 1.8618,0.58905 0.47287,0.39789 0.82424,0.89818 0.78082,1.11175 -0.0862,0.42412 -3.59795,1.65041 -4.74298,1.65624 -0.89159,0.005 -2.612,0.71923 -2.612,1.08507 0,0.15437 0.65484,0.96721 1.45521,1.80631 0.80036,0.8391 1.45521,1.66743 1.45521,1.84074 0,0.17331 0.20836,0.39117 0.46302,0.48414 0.25466,0.093 0.74697,0.38688 1.09401,0.65315 0.36281,0.27837 1.06926,0.48413 1.66215,0.48413 0.56713,0 1.47242,0.18438 2.01176,0.40973 0.53934,0.22535 1.25522,0.34081 1.59084,0.25657 0.44417,-0.11148 0.913,0.0917 1.72287,0.74654 1.47219,1.19042 2.49651,1.4867 5.49112,1.58826 1.85521,0.0629 2.48121,0.17179 2.42525,0.42179 -0.0415,0.18534 0.0738,0.51682 0.25625,0.73662 0.26296,0.31685 0.68304,0.36364 2.02781,0.22587 0.93288,-0.0956 2.03205,-0.34748 2.4426,-0.55979 0.41055,-0.2123 0.95742,-0.386 1.21526,-0.386 1.39946,0 -2.87871,2.25667 -5.07274,2.6758 -0.76864,0.14683 -1.62931,0.0477 -3.14431,-0.362 l -2.08598,-0.56417 -0.50482,0.62343 c -0.74291,0.91746 -0.51657,1.43603 0.7115,1.63006 0.58018,0.0917 2.0669,0.51622 3.30382,0.94344 1.95942,0.67678 2.30915,0.89376 2.71647,1.68542 l 0.46752,0.90864 -1.52585,0.71458 c -0.83921,0.39302 -1.89312,0.72044 -2.34201,0.7276 -0.56292,0.009 -1.03559,0.25931 -1.52339,0.80678 -0.76824,0.86222 -1.75911,1.03735 -2.28487,0.40384 -0.2846,-0.34292 -0.41401,-0.34315 -1.07397,-0.002 -0.41271,0.21342 -0.92447,0.32123 -1.13725,0.23958 -0.21278,-0.0816 -0.46547,-0.0213 -0.56154,0.13416 -0.26638,0.43101 -0.60214,0.34039 -1.0365,-0.27974 z m -71.60278,-36.13583 c 0,-0.23742 -0.031,-0.38206 -0.069,-0.32143 -0.0379,0.0606 -0.30583,0.39546 -0.59532,0.74406 l -0.52634,0.63381 0.59531,-0.31239 c 0.32742,-0.17182 0.59531,-0.50664 0.59531,-0.74405 z m -74.34791,-21.64245 c 0,-0.0388 -0.28679,-0.12541 -0.63731,-0.19241 -0.43174,-0.0825 -0.59691,-0.0166 -0.51208,0.2045 0.10032,0.26141 1.14939,0.25038 1.14939,-0.0121 z m 200.74538,57.82364 c -1.61031,-0.51466 -2.38729,-0.99255 -2.17424,-1.33728 0.13679,-0.22131 2.07025,0.14123 2.73388,0.51263 0.24382,0.13643 0.84275,0.0596 1.53477,-0.19688 1.04693,-0.38803 1.20745,-0.38605 2.07047,0.0255 0.51456,0.24538 0.93557,0.54828 0.93557,0.67312 0,0.30092 -1.84624,0.84364 -2.80882,0.82569 -0.41968,-0.008 -1.45092,-0.23408 -2.29163,-0.50278 z m -38.55175,-0.59186 c 0.006,-0.85327 0.28291,-1.20152 1.12482,-1.41282 1.01323,-0.25431 2.64668,0.0767 2.3912,0.48453 -0.10934,0.17455 -0.20194,0.49401 -0.20579,0.70991 -0.01,0.55107 -0.96451,0.67605 -1.25118,0.1638 -0.2987,-0.53375 -1.53394,-0.56821 -1.53394,-0.0428 0,0.20969 -0.11906,0.45485 -0.26458,0.54478 -0.14754,0.0912 -0.26279,-0.10673 -0.26053,-0.4474 z m -2.93594,-0.78334 c -0.27007,-0.50463 -0.24859,-0.54629 0.18913,-0.36686 0.27159,0.11134 0.73192,0.25796 1.02297,0.32583 0.44482,0.10372 0.41414,0.0174 -0.19251,-0.5414 -1.05725,-0.9739 -1.02612,-1.29607 0.12636,-1.30771 1.2366,-0.0125 1.35892,0.11156 1.39153,1.41123 l 0.0263,1.0482 h -1.12956 c -0.88529,0 -1.19543,-0.12311 -1.43422,-0.56929 z m 29.25793,-4.98696 c 0.0899,-0.14553 0.21603,-0.26459 0.28019,-0.26459 0.0642,0 0.11668,0.11906 0.11668,0.26459 0,0.14552 -0.1261,0.26458 -0.28019,0.26458 -0.15412,0 -0.20661,-0.11906 -0.11668,-0.26458 z m -20.08531,-4.89462 c -0.46,-0.36884 -1.47336,-0.74851 -2.51354,-0.94173 -2.63259,-0.48903 -2.93344,-0.64625 -2.93344,-1.53304 0,-0.42235 0.18006,-0.91734 0.40014,-1.09999 0.29846,-0.2477 0.32591,-0.42152 0.10802,-0.68405 -0.2417,-0.29124 -0.39879,-0.28208 -0.91035,0.0531 -0.5713,0.37433 -0.63978,0.36486 -0.90178,-0.12469 -0.15594,-0.29138 -0.28353,-0.77014 -0.28353,-1.0639 0,-0.93337 -0.5743,-1.84124 -1.62561,-2.56979 -0.8886,-0.6158 -1.02023,-0.84013 -1.02023,-1.73868 0,-0.96284 0.0367,-1.01201 0.55024,-0.73718 0.30263,0.16196 0.79111,0.70273 1.08552,1.20172 0.29441,0.49898 0.81942,0.97855 1.1667,1.06571 0.34728,0.0872 0.96119,0.53407 1.36425,0.99312 0.40306,0.45906 1.10753,1.10146 1.5655,1.42756 0.58378,0.41569 0.7929,0.745 0.69961,1.10172 -0.0968,0.37027 0.0865,0.62233 0.67318,0.92573 1.07353,0.55514 1.30901,0.52685 1.40942,-0.16931 0.10042,-0.69628 1.628,-1.79503 2.49561,-1.79503 1.13673,0 1.24587,0.83039 0.3918,2.98045 -0.42561,1.07138 -0.81364,2.25808 -0.8623,2.63711 l -0.0885,0.68916 z m -7.82823,-10.94129 c 0,-0.42023 -0.27393,-0.48526 -2.23697,-0.53107 -1.23033,-0.0287 -2.73793,-0.22896 -3.35024,-0.44499 -0.74878,-0.26418 -1.55399,-0.33759 -2.45938,-0.22421 l -1.34612,0.16858 1.05833,-1.10944 1.05834,-1.10945 -0.69777,-0.60486 c -0.91554,-0.79364 -1.28661,-1.52123 -1.28661,-2.52281 0,-1.63866 2.2841,-1.71827 4.33711,-0.15118 1.17988,0.90062 1.90816,0.98639 2.75271,0.32417 0.41765,-0.32748 1.63999,0.48945 2.03594,1.36069 0.14422,0.31733 0.47951,0.64593 0.74509,0.73023 0.3404,0.10804 0.46057,0.36596 0.40726,0.87414 -0.0453,0.43228 0.15359,1.01228 0.4969,1.44872 0.69819,0.88761 0.58828,1.2207 -0.59819,1.81293 -0.87642,0.43747 -0.9164,0.43653 -0.9164,-0.0214 z m 3.08359,-1.05475 c -0.62728,-0.65474 -0.67073,-0.79787 -0.32846,-1.08193 0.63966,-0.53087 1.33591,-0.23408 1.43274,0.61073 0.13118,1.14446 -0.28792,1.32329 -1.10428,0.4712 z m -15.98203,-2.86374 c -0.1819,-0.0734 -0.33073,-0.30467 -0.33073,-0.51395 0,-0.20927 -0.32742,-0.51925 -0.7276,-0.68884 -0.40019,-0.16959 -1.11456,-0.66664 -1.5875,-1.10456 -1.39203,-1.28896 -1.0687,-3.00093 0.779,-4.12458 0.77035,-0.46848 0.80341,-0.46521 1.98708,0.19635 0.95165,0.53189 1.34227,0.97544 1.86547,2.11825 0.62946,1.37494 0.64136,1.48829 0.24376,2.32207 -0.31033,0.65077 -0.3361,0.90415 -0.10005,0.98363 0.23817,0.0802 0.22683,0.21746 -0.0452,0.54696 -0.3463,0.41952 -1.37636,0.55032 -2.08427,0.26467 z m 54.10729,-6.33834 c -1.07069,-0.68835 -1.36411,-1.47165 -0.46302,-1.23601 0.35322,0.0924 0.52917,0.008 0.52917,-0.25337 0,-0.48549 -1.82801,-1.78361 -2.52778,-1.79505 -0.28321,-0.005 -0.74604,-0.18322 -1.02851,-0.39687 -0.2825,-0.21366 -0.81127,-0.38846 -1.17507,-0.38846 -0.60362,0 -0.62079,-0.0297 -0.19648,-0.34 0.4405,-0.3221 0.43759,-0.3648 -0.0555,-0.81099 -0.60928,-0.55139 -0.79115,-0.34991 -0.8804,0.97529 -0.0747,1.10916 -0.35425,1.26706 -0.58878,0.33257 -0.0879,-0.35028 -0.22312,-0.80176 -0.30046,-1.00327 -0.0804,-0.20962 0.19204,-0.61231 0.63675,-0.94111 l 0.77735,-0.57471 0.67794,0.53326 c 0.5692,0.44773 1.17387,0.55054 3.76997,0.64097 3.0522,0.10632 3.10319,0.1185 3.95644,0.9455 0.52901,0.51275 1.1366,0.8378 1.56602,0.8378 0.48178,0 0.79131,0.19688 0.98793,0.62838 0.15748,0.34562 0.41603,0.63021 0.57457,0.63244 0.68688,0.01 1.00888,0.44937 0.72183,0.98573 -0.21164,0.39545 -0.46749,0.49439 -1.01952,0.39429 l -0.73697,-0.13363 0.59772,0.65118 c 0.60495,0.65902 0.5298,1.2408 -0.0934,0.72356 -0.23844,-0.19791 -0.49403,-0.19723 -0.86683,0.002 -0.29077,0.15562 -0.94966,0.28294 -1.4642,0.28294 -0.72991,0 -1.0628,-0.17217 -1.51469,-0.78336 -0.31853,-0.43085 -0.68506,-0.7179 -0.81452,-0.6379 -0.12943,0.08 -0.0917,0.31849 0.0838,0.52999 0.59885,0.72158 -0.14153,0.84903 -1.15335,0.19853 z m -34.85885,-9.12731 c 0,-0.16227 -0.43081,-0.68965 -0.95736,-1.17195 l -0.95735,-0.8769 0.55389,-0.77787 c 1.37208,-1.92692 1.26218,-2.80927 -0.38848,-3.11893 -0.49631,-0.0931 -0.96897,-0.27703 -1.05035,-0.40871 -0.24034,-0.38888 0.95989,-2.09963 1.65975,-2.36571 1.0963,-0.41682 1.21955,-0.32046 1.03848,0.81191 -0.10355,0.64754 -0.0473,1.25225 0.1453,1.56056 0.24406,0.39081 0.23631,1.00505 -0.0347,2.74697 -0.31295,2.01172 -0.30411,2.30773 0.0855,2.86393 0.49709,0.7097 0.55012,1.03175 0.1699,1.03175 -0.14552,0 -0.26458,-0.13277 -0.26458,-0.29505 z m -167.3635,-2.16632 c -0.1018,-0.26236 -1.15221,-0.95881 -2.33423,-1.54768 -1.18203,-0.58887 -2.56586,-1.46162 -3.07519,-1.93944 -0.50932,-0.47782 -1.35134,-1.004 -1.87115,-1.16929 -0.51982,-0.16529 -1.34685,-0.715 -1.83785,-1.22158 -0.87118,-0.89884 -0.87745,-0.92106 -0.25998,-0.92106 0.348,0 0.93691,0.28107 1.30867,0.6246 0.39878,0.3685 1.4851,0.82923 2.64935,1.12365 1.3206,0.33396 2.23961,0.74543 2.77812,1.24384 0.4426,0.40964 1.36355,1.11033 2.04657,1.55708 1.45748,0.95332 1.5975,1.2109 1.12996,2.07874 -0.31393,0.58272 -0.36785,0.59999 -0.53427,0.17114 z m 3.76572,-4.2584 c -0.10556,-0.27509 -0.0168,-0.50297 0.23344,-0.59898 0.57846,-0.22197 0.69536,0.006 0.28853,0.56216 -0.3232,0.44201 -0.36534,0.44498 -0.52197,0.0368 z m -6.92618,-1.50026 c -0.43656,-0.27964 -1.0525,-0.50906 -1.36876,-0.50983 -0.62632,-0.002 -2.32857,-1.28706 -2.05993,-1.55567 0.091,-0.091 1.29066,-0.12382 2.66584,-0.0729 1.99513,0.0739 2.48516,0.0205 2.42533,-0.26458 -0.0499,-0.23761 0.24709,-0.38412 0.88686,-0.43754 0.78162,-0.0653 1.06669,0.053 1.52136,0.63099 0.30773,0.39122 0.55951,0.87384 0.55951,1.0725 0,0.54032 -0.90919,0.43537 -1.45521,-0.16797 -0.72477,-0.80087 -0.94368,-0.636 -0.51566,0.38837 0.21085,0.50465 0.38337,1.04043 0.38337,1.19063 0,0.46357 -2.20058,0.26539 -3.04271,-0.27403 z m 270.72471,-35.47365 c -1.63767,-0.31389 -3.85551,-1.30067 -5.37361,-2.3909 -1.5712,-1.12835 -4.8282,-5.08191 -4.27667,-5.19131 0.64092,-0.12713 1.05373,-2.71327 0.63,-3.94677 -0.30803,-0.89671 -0.51102,-1.05934 -1.94329,-1.55696 -2.04123,-0.70919 -3.12766,-1.48883 -3.7733,-2.70777 -0.28257,-0.53345 -1.40182,-1.74381 -2.48724,-2.6897 -1.99986,-1.74276 -2.73421,-2.94562 -2.45354,-4.01889 0.0854,-0.32634 -0.0834,-0.84973 -0.4214,-1.30686 -0.55462,-0.75019 -0.5566,-0.7923 -0.12142,-2.60552 0.24326,-1.01365 0.36905,-2.03397 0.27946,-2.26738 -0.10811,-0.28173 -0.037,-0.39547 0.21164,-0.33838 0.36166,0.083 0.49112,-0.0591 0.49112,-0.53909 0,-0.12551 -0.35544,-0.67547 -0.78989,-1.22214 -0.43445,-0.54667 -0.72506,-1.09882 -0.64585,-1.227 0.30819,-0.49867 1.27897,-0.19276 2.07849,0.65498 1.18404,1.25543 1.92725,1.60031 3.59058,1.66616 2.57956,0.10214 2.64583,0.11839 2.64583,0.64878 0,0.27565 0.11706,0.50118 0.26014,0.50118 0.14306,0 0.5729,0.62508 0.95523,1.38906 0.38229,0.76398 0.93255,1.64814 1.2228,1.96479 0.29022,0.31665 0.4519,0.69836 0.35927,0.84825 -0.0926,0.14989 0.008,0.69448 0.22336,1.21021 0.30179,0.7223 0.54499,0.93769 1.05881,0.93769 0.43437,0 0.87175,0.27688 1.25389,0.79375 0.32277,0.43656 0.72459,0.79375 0.89297,0.79375 0.52546,0 1.13035,0.87486 1.74122,2.51842 0.72067,1.93898 1.46228,2.83907 2.15742,2.61844 0.32358,-0.1027 0.73204,0.0552 1.14413,0.44234 0.61863,0.58117 0.65337,0.58498 1.00087,0.10976 0.33679,-0.46059 0.38976,-0.42958 0.82195,0.48124 0.25411,0.53545 0.61892,0.97355 0.81069,0.97355 0.19179,0 0.60433,0.35898 0.91675,0.79774 0.31245,0.43876 0.89776,0.96824 1.30075,1.17663 1.08153,0.55929 2.92975,3.52606 2.92975,4.70287 0,0.52349 0.24339,1.51961 0.54087,2.2136 0.44883,1.04706 0.489,1.38702 0.23611,1.99754 -0.16761,0.40466 -0.47054,0.87333 -0.67315,1.04149 -0.29702,0.2465 -0.37005,0.18411 -0.37682,-0.32196 -0.008,-0.6097 -0.0196,-0.61293 -0.39786,-0.11276 -0.28707,0.37956 -0.46725,0.43717 -0.68529,0.21912 -0.39548,-0.39547 -0.90962,-0.17927 -2.44872,1.02971 -0.71025,0.55789 -1.36509,1.00103 -1.45521,0.98476 -0.0901,-0.0163 -0.73401,-0.13886 -1.43084,-0.27242 z m -125.07159,-12.51467 c 0,-0.60293 -0.50099,-0.75582 -1.13611,-0.3467 -0.47313,0.30478 -0.94862,0.32467 -2.51052,0.10506 -1.42244,-0.2 -2.15461,-0.18856 -2.79691,0.0437 -1.63133,0.5899 -2.5015,0.22274 -3.54714,-1.49669 -1.0954,-1.80123 -2.31668,-2.82864 -3.9504,-3.32329 -1.48912,-0.45086 -1.63485,-0.45307 -2.43959,-0.0369 -0.55222,0.28556 -1.13014,0.38234 -1.62897,0.27278 -0.66057,-0.14509 -0.81045,-0.0716 -1.02966,0.505 -0.16038,0.42181 -0.53285,0.73544 -0.99352,0.83657 -0.40533,0.089 -0.88579,0.20764 -1.0677,0.26367 -0.1819,0.056 -0.33073,-0.073 -0.33073,-0.28668 0,-0.21371 0.11907,-0.38857 0.26459,-0.38857 0.40924,0 0.31251,-0.68918 -0.15069,-1.0736 -0.2284,-0.18955 -0.35861,-0.56132 -0.28935,-0.82614 0.0911,-0.34839 -0.022,-0.48151 -0.40912,-0.48151 -0.29427,0 -1.14632,-0.19738 -1.89346,-0.43862 -0.74713,-0.24124 -1.52066,-0.48078 -1.71895,-0.5323 -0.27226,-0.0707 -0.28766,-0.18148 -0.0629,-0.45231 0.41577,-0.50098 -0.3,-1.05844 -1.1503,-0.8959 -0.52297,0.1 -0.69968,-0.0161 -0.90018,-0.59126 -0.1931,-0.55393 -0.47234,-0.75182 -1.23571,-0.8757 -0.54244,-0.088 -1.20655,-0.35942 -1.47582,-0.6031 -0.44311,-0.40101 -0.54819,-0.40464 -1.10736,-0.0383 -0.56307,0.36894 -0.67498,0.36149 -1.26355,-0.0841 -0.35516,-0.26891 -1.12201,-0.56826 -1.70409,-0.66523 -1.45337,-0.2421 -1.84472,-0.48788 -2.52212,-1.58393 -0.5081,-0.82213 -0.56077,-1.16183 -0.40046,-2.58304 0.21026,-1.86412 0.96258,-3.28584 1.8576,-3.51047 0.7645,-0.19188 2.0418,0.45 2.60454,1.30885 0.48399,0.73866 1.18487,0.69398 1.92389,-0.12263 0.56236,-0.6214 2.52984,-0.69513 3.01303,-0.11292 0.50509,0.60859 2.05977,0.80583 2.59608,0.32937 0.24884,-0.22108 0.89539,-0.58486 1.43677,-0.8084 0.9578,-0.39549 1.04337,-0.38111 3.175,0.53359 1.20487,0.51702 2.45097,1.17793 2.76913,1.46871 0.53804,0.49175 0.73986,0.50986 2.88922,0.25934 1.27092,-0.14814 2.70726,-0.22017 3.19185,-0.16006 0.51324,0.0636 0.88109,-0.008 0.88109,-0.17132 0,-0.37298 1.82539,-1.143 2.58884,-1.09208 0.33246,0.0222 0.67236,-0.1366 0.75533,-0.35284 0.21565,-0.56196 0.62458,-0.21505 0.62458,0.52986 0,0.34662 0.0905,0.68615 0.20106,0.75449 0.31125,0.19236 1.91561,-0.55912 1.91561,-0.89727 0,-0.20296 0.33599,-0.24384 1.03434,-0.12586 1.24676,0.21064 2.54945,-0.3683 2.98635,-1.3272 0.25343,-0.55621 0.19758,-0.74034 -0.40834,-1.34627 -0.38606,-0.38606 -0.70193,-0.88573 -0.70193,-1.11038 0,-0.22464 0.54407,-0.91511 1.20905,-1.53437 1.0388,-0.96737 1.16911,-1.20057 0.92538,-1.65599 -0.35205,-0.65782 0.11004,-3.11764 0.71451,-3.80351 0.75615,-0.85797 3.25283,-0.36591 3.45442,0.68082 0.12046,0.6255 -0.34517,1.1458 -1.22099,1.36436 -1.2674,0.31628 -1.64235,0.86069 -1.46815,2.13166 0.13101,0.95578 0.07,1.18895 -0.38546,1.47339 -0.53211,0.33231 -0.52388,0.36927 0.49633,2.22814 0.57057,1.03962 1.03741,2.06566 1.03741,2.28009 0,0.84852 0.7181,1.36994 2.13746,1.55202 1.41062,0.18097 1.43221,0.17295 2.96278,-1.10081 1.1634,-0.96818 1.7578,-1.2831 2.42181,-1.2831 1.30346,0 2.77494,0.71295 3.27701,1.58777 0.35758,0.62303 0.56993,0.74184 1.10561,0.61854 1.02103,-0.23499 1.85219,-0.84509 2.1235,-1.55869 0.28385,-0.74656 1.31873,-0.88707 1.84683,-0.25075 0.52346,0.63074 1.45592,0.46583 2.69141,-0.476 1.07221,-0.81736 1.15649,-0.97581 1.32497,-2.49088 0.099,-0.88989 0.38466,-2.01392 0.6349,-2.49784 0.83728,-1.61911 4.0266,-4.87087 5.41529,-5.52129 0.71628,-0.3355 1.37446,-0.83724 1.46262,-1.11498 0.0898,-0.28293 0.317,-0.44484 0.5167,-0.36821 1.40007,0.53725 2.57131,0.706 2.91579,0.4201 0.28671,-0.23794 0.57113,-0.18161 1.27289,0.25209 1.00936,0.62382 1.5359,0.53863 1.98847,-0.32171 0.63159,-1.20069 0.77579,-2.18041 0.3972,-2.6982 -0.20813,-0.28461 -0.36399,-1.14352 -0.36399,-2.0058 0,-0.93734 -0.19807,-1.94451 -0.52335,-2.66141 -0.28786,-0.63435 -0.52599,-1.46442 -0.52916,-1.84459 -0.003,-0.38017 -0.36301,-1.14068 -0.79958,-1.69003 -0.43656,-0.54934 -0.79375,-1.14741 -0.79375,-1.32905 0,-0.18164 -0.17785,-0.67128 -0.39523,-1.0881 -0.50236,-0.96323 -0.51279,-2.58258 -0.0193,-2.99217 0.42711,-0.35446 4.02613,-0.11384 4.27307,0.28568 0.0785,0.12694 0.41608,0.16216 0.7503,0.0783 0.96002,-0.24095 2.51495,0.54352 2.82173,1.4236 0.18767,0.53836 0.53705,0.8453 1.19039,1.04582 0.81743,0.25088 1.00793,0.21196 1.64198,-0.33548 0.71585,-0.61808 0.71633,-0.62088 0.23929,-1.43362 -0.5375,-0.91574 -0.56142,-0.901 1.33519,-0.82289 1.27214,0.0524 1.40785,5.3e-4 1.64708,-0.62863 0.32055,-0.8431 0.80746,-0.87224 1.5112,-0.0904 1.03603,1.15099 0.84786,2.06186 -0.33242,1.60895 -0.33169,-0.12728 -0.39995,-0.003 -0.33073,0.60361 0.0667,0.58402 0.24304,0.78556 0.74869,0.8555 0.3638,0.0503 0.81298,0.21598 0.99819,0.36811 0.18521,0.15214 1.04841,0.26652 1.91823,0.25419 0.86982,-0.0123 1.58149,0.0845 1.58149,0.21517 0,0.13067 -0.28347,1.01858 -0.62997,1.97311 l -0.62994,1.73552 0.5316,1.82238 c 0.73369,2.51509 0.51646,3.70166 -1.14298,6.24369 -1.79022,2.74234 -2.5518,3.06731 -6.26464,2.67311 l -1.65365,-0.17556 v 1.76713 c 0,1.47716 0.10851,1.90939 0.66127,2.63411 0.36373,0.47684 0.86974,0.93314 1.12451,1.014 0.53583,0.17007 1.91886,2.34003 1.91741,3.00839 -0.003,0.59427 -0.97025,2.17203 -1.33392,2.17203 -0.1564,0 -0.81963,0.40872 -1.47387,0.90826 -0.65423,0.49955 -1.56982,0.9906 -2.03464,1.09123 -0.46482,0.10064 -1.17044,0.41289 -1.56803,0.69389 -0.68482,0.48403 -0.77123,0.48798 -1.64147,0.075 -0.50523,-0.23975 -1.0577,-0.60353 -1.22772,-0.80841 -0.42463,-0.51162 -0.95602,-0.46698 -1.8274,0.15349 -0.64765,0.46115 -0.77899,0.47746 -1.06545,0.13229 -0.21513,-0.25923 -0.8127,-0.3937 -1.74953,-0.3937 -1.34501,0 -1.42283,0.0365 -1.42283,0.66801 0,0.45881 0.19585,0.74247 0.62537,0.90578 0.34396,0.13077 0.70395,0.44252 0.8,0.69277 0.20542,0.53534 0.28106,0.45035 -0.95949,1.07795 -0.66556,0.33671 -1.18509,0.88876 -1.5875,1.68686 -0.43754,0.86777 -0.90008,1.33136 -1.72246,1.72639 -0.61838,0.29703 -1.63764,1.04385 -2.26506,1.65961 -0.62741,0.61575 -1.20452,1.05578 -1.28247,0.97783 -0.228,-0.22801 -1.99723,0.6037 -2.15416,1.01266 -0.0911,0.23732 -0.75366,0.43911 -1.81803,0.55369 -2.44426,0.26312 -2.94604,0.26856 -3.46067,0.0376 -0.38105,-0.17103 -0.46374,-0.074 -0.46708,0.54809 -0.002,0.41575 -0.0926,0.89519 -0.20093,1.06541 -0.32209,0.50633 -3.01744,1.4687 -3.30581,1.18033 -0.16273,-0.16273 -0.89302,0.20139 -2.02757,1.01095 -0.97529,0.69591 -2.00819,1.39104 -2.29536,1.54472 -0.86238,0.46153 -4.88723,0.56082 -5.72617,0.14125 -0.62755,-0.31384 -0.83667,-0.30748 -1.52076,0.0463 -0.72093,0.3728 -0.85308,0.37089 -1.45119,-0.021 -0.636,-0.41672 -0.66681,-0.40808 -0.92009,0.25809 -0.2882,0.75811 -0.53971,0.90163 -0.53971,0.308 z m -45.12147,-10.33882 c -0.0673,-0.21583 -0.16941,-0.54845 -0.22703,-0.73916 -0.0576,-0.19071 -0.59339,-0.49314 -1.19062,-0.67208 -0.59723,-0.17893 -1.08587,-0.43498 -1.08587,-0.569 0,-0.13402 -0.53579,-0.90146 -1.19063,-1.70543 -1.00123,-1.22925 -1.19062,-1.64334 -1.19062,-2.60322 0,-1.86314 0.99673,-2.32058 2.4295,-1.11498 0.43235,0.3638 0.97486,0.66145 1.20557,0.66145 0.62403,0 2.66508,1.26457 2.97464,1.84299 0.1482,0.27691 0.26945,0.98885 0.26945,1.58209 0,1.84351 -1.61604,4.53154 -1.99439,3.31734 z m 2.31962,-8.63969 c -0.39944,-0.39943 -0.42681,-1.4483 -0.044,-1.6849 0.42493,-0.26263 1.34034,0.69972 1.25174,1.31591 -0.0912,0.63446 -0.74313,0.83363 -1.20777,0.36899 z m 145.47643,-0.57356 c -0.939,-2.46973 -1.36525,-4.39437 -1.08799,-4.91245 0.3783,-0.70686 0.094,-1.89145 -0.40772,-1.69892 -0.20495,0.0786 -0.37262,0.0648 -0.37262,-0.0307 0,-0.40171 0.79203,-1.64803 1.42023,-2.23486 0.64768,-0.60503 0.7056,-0.61329 1.34806,-0.19234 0.56009,0.36699 0.67228,0.64702 0.67717,1.69052 0.004,0.79416 0.18087,1.4782 0.4853,1.87399 0.45432,0.59072 0.45746,0.74568 0.0603,2.96405 -0.23051,1.28741 -0.56796,2.48925 -0.74986,2.67075 -0.1819,0.18151 -0.33073,0.23209 -0.33073,0.11241 0,-0.11969 -0.17661,-0.071 -0.39248,0.10813 -0.32504,0.26975 -0.4367,0.2095 -0.64961,-0.35053 z m -168.35739,-0.90028 c -1.05146,-1.06862 -1.25677,-1.44032 -1.25677,-2.27535 0,-0.9489 0.0684,-1.02862 1.38906,-1.6181 l 1.38907,-0.62004 0.79375,0.60239 c 0.43656,0.33131 0.91281,1.00402 1.05833,1.4949 0.14552,0.49089 0.3627,1.04426 0.48263,1.22971 0.22777,0.35223 0.004,1.82887 -0.30455,2.01051 -0.0979,0.0576 -0.65433,0.18321 -1.23641,0.27903 -1.00488,0.16543 -1.12182,0.10971 -2.31511,-1.10305 z m 11.30947,-1.12842 c -0.52898,-0.58452 -0.53007,-0.58136 0.36307,-1.04671 0.51905,-0.27043 0.69709,-0.25534 1.04064,0.0882 0.37624,0.37624 0.36961,0.46404 -0.0719,0.95187 -0.60417,0.6676 -0.73308,0.66824 -1.33184,0.007 z m 79.37088,-8.83329 c -0.42788,-0.31288 -0.4505,-0.43223 -0.15046,-0.79375 0.44412,-0.53514 1.44283,-0.55038 1.87584,-0.0286 0.26278,0.31663 0.26278,0.47711 0,0.79375 -0.41193,0.49635 -1.07078,0.50728 -1.72538,0.0286 z m -44.75585,-0.84909 c -0.16451,-0.42868 0.30055,-0.88786 0.90675,-0.89529 0.36419,-0.004 0.41472,0.26296 0.17013,0.90036 -0.20809,0.54227 -0.86804,0.53916 -1.07688,-0.005 z m -64.90835,-1.56079 c -0.26278,-0.31664 -0.26278,-0.47712 0,-0.79375 0.45582,-0.54923 0.66218,-0.49923 1.00006,0.24234 0.23456,0.5148 0.21286,0.66929 -0.11147,0.79375 -0.53501,0.2053 -0.51183,0.21163 -0.88859,-0.24234 z m 148.48694,-0.49421 c -0.31596,-0.53549 -0.75538,-1.04305 -0.97652,-1.12791 -0.22117,-0.0849 -0.40209,-0.29679 -0.40209,-0.47096 0,-0.17416 -0.40404,-0.70828 -0.89789,-1.18693 -0.49384,-0.47865 -0.9715,-1.23834 -1.06148,-1.68819 -0.09,-0.44985 -0.37052,-1.04645 -0.62347,-1.32578 -0.47778,-0.52765 -0.47693,-0.51018 -0.28156,-5.85615 l 0.0863,-2.36054 -1.45778,-2.93112 c -1.65346,-3.32456 -2.16008,-4.11702 -2.88192,-4.5081 -0.70625,-0.38262 -3.19992,-3.55594 -3.20551,-4.07915 -0.003,-0.23611 -0.30017,-0.70968 -0.66145,-1.05238 -0.36129,-0.3427 -0.65689,-0.72965 -0.65689,-0.8599 0,-0.13024 -0.17938,-0.23681 -0.39862,-0.23681 -0.21926,0 -0.64989,-0.28898 -0.95699,-0.64218 -0.69308,-0.7971 -1.44929,-1.09122 -3.78498,-1.4721 -2.51499,-0.41012 -4.98557,-1.88713 -7.95628,-4.75656 -1.91783,-1.85246 -2.63012,-2.36817 -3.66009,-2.64997 -0.85405,-0.23368 -1.46844,-0.60635 -1.84965,-1.12194 -0.48609,-0.6575 -4.10948,-3.11558 -4.59258,-3.11558 -0.27349,0 -2.88167,-1.79413 -3.24554,-2.23257 -0.18864,-0.2273 -0.5017,-0.41327 -0.69571,-0.41327 -0.194,0 -0.78629,-0.29422 -1.31621,-0.65383 -0.85563,-0.58065 -1.21227,-0.64825 -3.18585,-0.60386 -1.79009,0.0403 -2.31039,-0.0381 -2.67494,-0.40261 -0.77299,-0.77299 -0.0164,-1.15955 2.5013,-1.27807 0.62196,-0.0293 0.78723,-0.35137 0.32641,-0.63617 -0.14789,-0.0914 -0.20633,-0.26743 -0.12985,-0.39117 0.0765,-0.12373 -0.27878,-0.36286 -0.78944,-0.5314 -0.91316,-0.30137 -1.15894,-0.81619 -0.71957,-1.50727 0.13759,-0.21641 0.78182,0.17812 2.04647,1.25329 1.01512,0.86303 2.03945,1.5707 2.27629,1.57262 0.23684,0.002 0.59403,0.20132 0.79375,0.44313 0.19972,0.24181 0.97357,0.71009 1.71966,1.04061 0.91191,0.40399 1.5477,0.91028 1.9398,1.54472 0.53751,0.8697 0.68287,0.94376 1.85222,0.94376 0.74716,0 1.39176,0.14798 1.5676,0.35987 0.16426,0.19792 0.57918,0.30624 0.92202,0.2407 0.42368,-0.081 0.91051,0.12649 1.51969,0.6477 0.49297,0.42178 1.61018,1.11714 2.48269,1.54525 0.87252,0.4281 2.09603,1.28438 2.71894,1.90284 0.62291,0.61846 1.30127,1.12448 1.50746,1.12448 0.20622,0 0.55124,0.25173 0.76674,0.5594 0.27532,0.39308 0.77147,0.59976 1.66865,0.6951 0.70225,0.0746 1.47042,0.30423 1.70704,0.51023 0.23661,0.20601 0.86169,0.44457 1.38906,0.53016 0.58692,0.0952 0.95885,0.30361 0.95885,0.53719 0,0.74903 3.03194,3.82675 4.81626,4.88895 1.41134,0.84018 1.93458,1.34118 2.56217,2.45319 0.81254,1.43972 1.50159,1.95366 1.97914,1.47612 0.15028,-0.15029 0.35676,-0.27326 0.45879,-0.27326 0.33488,0 1.37826,1.9647 1.54016,2.90015 0.13121,0.75807 0.29787,0.94428 0.9679,1.08131 0.44516,0.091 1.18033,0.43979 1.63372,0.77498 0.84498,0.62473 1.95379,0.79291 2.77924,0.42154 0.38219,-0.17194 0.56613,0.0326 1.02748,1.14276 0.53941,1.29795 0.79537,1.48815 1.88045,1.39722 0.26188,-0.0219 0.46302,0.1427 0.46302,0.37904 0,0.22981 0.41672,0.90468 0.92604,1.49971 0.50933,0.59503 0.92604,1.2417 0.92604,1.43704 0,0.19533 0.45892,0.85851 1.01981,1.47372 0.8164,0.89545 1.05053,1.38822 1.17375,2.47042 0.14875,1.30613 0.11874,1.38622 -0.88752,2.3688 -1.01862,0.99467 -1.30649,1.77286 -0.77687,2.10019 0.43085,0.26627 0.32269,2.24327 -0.13229,2.41786 -0.21828,0.0838 -0.39688,0.37951 -0.39688,0.65722 0,0.64286 -1.82221,3.40721 -2.24599,3.40721 -0.17542,0 -0.43352,0.25669 -0.57351,0.57043 -0.24326,0.54515 -0.27998,0.52728 -0.82897,-0.40318 z m -155.30724,-1.63746 c -1.3779,-0.96513 -0.043,-4.61521 1.68784,-4.61521 1.28534,0 2.1621,2.33304 1.407,3.74396 -0.25182,0.47052 -1.70372,1.28312 -2.29259,1.28312 -0.11781,0 -0.47883,-0.18534 -0.80225,-0.41187 z m 80.96442,-0.91203 c -0.36494,-0.58435 -0.89218,-0.7164 -0.78839,-0.19745 0.0844,0.42212 -0.91273,0.43682 -1.05316,0.0155 -0.0578,-0.17336 0.24936,-0.49849 0.68254,-0.7225 0.72046,-0.37256 0.83273,-0.36824 1.31657,0.0506 0.34169,0.2958 0.46582,0.62148 0.35062,0.91995 -0.16451,0.42623 -0.20389,0.42111 -0.50818,-0.0661 z m 103.835,-3.12226 c -0.24402,-0.26966 -0.43992,-0.59998 -0.43529,-0.73404 0.005,-0.13407 0.18367,-0.012 0.39785,0.27119 0.31353,0.41455 0.45376,0.44965 0.71919,0.18003 0.26408,-0.26821 0.18524,-0.46012 -0.39587,-0.96357 -0.48768,-0.4225 -0.62515,-0.69076 -0.41923,-0.81802 0.48646,-0.30066 1.53498,1.19103 1.29439,1.84144 -0.27267,0.73707 -0.63314,0.80629 -1.16104,0.22297 z m -1.35395,-3.39026 c -0.16063,-0.64008 -0.0325,-1.13198 0.22728,-0.87224 0.27876,0.27877 0.45233,1.56491 0.21116,1.56491 -0.14552,0 -0.34282,-0.3117 -0.43844,-0.69267 z m -37.66601,-4.65191 c -0.45254,-0.45255 -0.39425,-0.85394 0.20246,-1.39395 0.50237,-0.45464 0.53039,-0.44765 0.82852,0.2067 0.52578,1.15391 -0.21325,2.00496 -1.03098,1.18725 z M -404.491,142.08486 c -0.31709,-0.82632 0.004,-1.35609 0.82125,-1.35609 0.70153,0 0.79013,0.089 0.79013,0.79375 0,0.66962 -0.11402,0.80686 -0.72911,0.87761 -0.46529,0.0535 -0.78453,-0.0605 -0.88227,-0.31527 z m 191.09,-0.12464 c -0.41441,-0.45792 -0.40753,-0.53206 0.11049,-1.19062 0.7225,-0.91853 1.22013,-0.89018 1.36216,0.0776 0.2128,1.44992 -0.60701,2.06956 -1.47265,1.11304 z m 2.12022,-1.59324 c -0.44186,-0.17388 -0.44852,-0.22563 -0.0695,-0.54017 0.52817,-0.43833 1.26477,-0.18493 1.05461,0.36277 -0.17106,0.44571 -0.26176,0.46204 -0.98507,0.1774 z m -202.84363,-11.69237 c 0,-0.15411 0.11906,-0.20661 0.26458,-0.11668 0.14552,0.0899 0.26458,0.21603 0.26458,0.2802 0,0.0642 -0.11906,0.11668 -0.26458,0.11668 -0.14552,0 -0.26458,-0.12609 -0.26458,-0.2802 z m 192.15364,-0.5218 c -0.72345,-0.29079 -0.74152,-0.42406 -0.10369,-0.7654 0.39926,-0.21368 0.54729,-0.14087 0.78806,0.38756 0.31909,0.70032 0.23434,0.74712 -0.68437,0.37784 z m 32.45022,-2.69207 c -0.60042,-1.19414 -1.44777,-2.50383 -1.88304,-2.91042 -0.85987,-0.80324 -0.84103,-0.86692 0.14539,-0.49188 0.67522,0.25672 2.59855,3.4402 2.92767,4.84585 0.28866,1.23281 -0.0524,0.81914 -1.19002,-1.44355 z m -30.61555,0.89858 c -0.72718,-0.0717 -0.82349,-0.15129 -0.5629,-0.46528 0.41577,-0.50097 1.28429,-0.48369 1.48119,0.0295 0.19812,0.5163 0.14661,0.54076 -0.91829,0.43581 z m -217.60238,-0.88703 c -0.77905,-0.28453 -0.84667,-0.41787 -0.49408,-0.9742 0.18606,-0.29357 0.37016,-0.28084 1.05429,0.0729 0.45587,0.23574 0.82886,0.60415 0.82886,0.8187 0,0.44353 -0.34464,0.46402 -1.38907,0.0826 z m 11.97251,-2.99964 c -0.26832,-0.32331 -0.27624,-0.4913 -0.0345,-0.73301 0.37815,-0.37815 1.22504,0.0545 1.22504,0.6258 0,0.52762 -0.78308,0.59814 -1.19051,0.10721 z m 189.61814,-1.43537 c -1.35657,-1.45028 -1.4736,-1.83863 -0.75108,-2.49251 0.53531,-0.48444 2.03526,-0.59241 2.2991,-0.16549 0.29319,0.47436 0.2721,3.39025 -0.0267,3.69042 -0.20603,0.207 -0.63312,-0.0828 -1.52135,-1.03242 z m -13.00615,-4.71633 c -0.2626,-0.5457 -0.57708,-1.19584 -0.69882,-1.44475 -0.12176,-0.2489 -0.15687,-0.62067 -0.078,-0.82614 0.10724,-0.27939 -0.0273,-0.34096 -0.53345,-0.24419 -0.66635,0.12738 -0.6768,0.10439 -0.6768,-1.48897 0,-0.93608 0.11512,-1.61834 0.27307,-1.61834 0.15021,0 0.69483,0.17621 1.21026,0.39157 0.79124,0.3306 0.92543,0.50571 0.86178,1.12448 -0.0415,0.4031 -0.21934,0.9115 -0.39529,1.12978 -0.3692,0.45807 0.15959,1.2818 1.16999,1.82255 0.63923,0.34211 0.78113,1.31444 0.26685,1.8287 -0.53607,0.53607 -0.90172,0.35979 -1.39956,-0.67469 z m -27.38663,0.56003 c 5.3e-4,-0.30765 2.20709,-1.68778 2.67311,-1.67202 0.20302,0.007 1.01107,0.34484 1.79567,0.75105 1.11723,0.57843 1.3251,0.77751 0.95866,0.91813 -0.25735,0.0987 -0.62685,0.0476 -0.82113,-0.11361 -0.36998,-0.30705 -2.94424,-0.21374 -4.01147,0.14541 -0.32742,0.11018 -0.5951,0.0971 -0.59484,-0.029 z m -10.42078,-6.63676 c -0.0965,-0.0965 -0.74945,-0.1449 -1.45109,-0.10766 -1.05178,0.0558 -1.42189,-0.0553 -2.10841,-0.63295 -0.45798,-0.38537 -1.03177,-1.1202 -1.27509,-1.63297 -0.31385,-0.66138 -0.77578,-1.0752 -1.58959,-1.42404 -0.63095,-0.27045 -1.14718,-0.59065 -1.14718,-0.71155 0,-0.30913 3.08671,-1.82879 4.40276,-2.16759 0.99833,-0.257 1.29156,-0.19815 3.30729,0.66383 2.94735,1.26036 3.42083,1.72482 3.36504,3.301 -0.024,0.67845 0.0328,1.35726 0.12625,1.50847 0.28553,0.46199 -0.58913,0.954 -1.81941,1.02346 -0.64173,0.0362 -1.27217,0.131 -1.40099,0.21062 -0.12882,0.0796 -0.31313,0.0658 -0.40958,-0.0306 z m 36.96646,-0.7568 c -0.0881,-0.22957 0.0352,-0.61274 0.27392,-0.8515 0.40243,-0.40242 0.47501,-0.39321 0.99433,0.12612 0.30813,0.30812 0.47921,0.6913 0.38021,0.8515 -0.2721,0.44026 -1.46619,0.3489 -1.64846,-0.12612 z m -94.11058,-7.12324 c -0.10247,-0.26701 0.0123,-0.39687 0.35074,-0.39687 0.29022,0 0.58162,-0.25185 0.68881,-0.59531 0.17226,-0.55198 0.57131,-0.97851 0.92447,-0.98814 0.0817,-0.002 0.41786,0.24686 0.74703,0.55353 l 0.59849,0.55757 -0.59472,0.63305 c -0.69992,0.74503 -2.46077,0.89821 -2.71482,0.23617 z m -26.74453,-2.836994 c -0.73259,-1.045919 -0.42785,-1.869153 0.77875,-2.103726 0.55762,-0.108405 0.62587,-0.578165 0.27247,-1.875288 -0.16795,-0.616474 -0.12982,-0.704031 0.24414,-0.560531 0.28304,0.108613 0.57764,-0.0219 0.81529,-0.361199 0.32858,-0.469118 0.51876,-0.503866 1.62579,-0.297051 0.85624,0.159963 1.55073,0.133801 2.1907,-0.08252 1.3782,-0.465862 6.62231,-0.296206 7.21103,0.233291 0.24924,0.224168 0.6325,0.338761 0.85168,0.254652 0.21919,-0.08411 1.49934,0.133863 2.84477,0.484384 1.34544,0.35052 2.50776,0.575805 2.58293,0.500632 0.0752,-0.07517 -0.0639,-0.48618 -0.30907,-0.913348 -0.51974,-0.905608 -0.0562,-1.10545 0.67926,-0.292815 0.89687,0.991026 0.47274,1.760405 -1.11695,2.026198 -0.86279,0.144255 -1.10865,0.113813 -0.9645,-0.119422 0.13102,-0.211994 0.0137,-0.200784 -0.3634,0.03473 -0.30626,0.191269 -0.55685,0.43784 -0.55685,0.547937 0,0.110098 -0.423,0.668387 -0.94,1.240643 -0.8679,0.960665 -1.00006,1.01953 -1.7231,0.767475 -0.43071,-0.150144 -0.98997,-0.188945 -1.24281,-0.08622 -1.69351,0.688023 -6.38356,0.2638 -7.7766,-0.703408 -0.38626,-0.268189 -0.91073,-0.487619 -1.16549,-0.487619 -0.43196,0 -0.43367,0.03261 -0.0253,0.483854 0.24084,0.266121 0.43788,0.550868 0.43788,0.632775 0,0.296542 -1.40618,0.493437 -1.6663,0.233317 -0.30558,-0.305575 -1.24522,0.09268 -1.58799,0.673053 -0.30229,0.51183 -0.62413,0.44437 -1.09633,-0.229788 z m -82.96187,-10.797348 c 0,-0.341031 0.75381,-0.64899 0.99593,-0.406871 0.0987,0.09865 0.004,0.290129 -0.20985,0.425509 -0.51216,0.323905 -0.78608,0.31741 -0.78608,-0.01864 z m 158.22083,-1.151463 c 0,-0.620574 1.08387,-0.710635 1.79743,-0.149351 l 0.65518,0.515368 h -1.22631 c -0.86771,0 -1.2263,-0.107031 -1.2263,-0.366017 z m -4.4942,-1.878457 c -0.26859,-0.323637 -0.40247,-0.347798 -0.55546,-0.100249 -0.14454,0.233873 -0.49396,0.06897 -1.23494,-0.582789 -0.56834,-0.49992 -1.22208,-1.028009 -1.45273,-1.17353 -0.7006,-0.441998 -0.80118,-1.743755 -0.20923,-2.707861 0.47272,-0.769918 0.59559,-0.829105 1.22467,-0.589931 1.29538,0.492503 2.19017,1.435975 3.12075,3.290544 0.50914,1.014659 0.90236,1.868184 0.87382,1.896722 -0.0285,0.02854 -0.35814,0.128752 -0.73244,0.222695 -0.46575,0.116897 -0.79224,0.03622 -1.03444,-0.255601 z"
       id="path1757" /></g></svg>
