<svg width="60" height="75" viewBox="0 0 60 75" fill="none" xmlns="http://www.w3.org/2000/svg">
<rect y="9.91479" width="14.3213" height="17.6262" rx="3" fill="#ff9a38"/>
<rect x="3.30493" y="25.8884" width="7.71144" height="8.81308" fill="#ff9a38"/>
<circle cx="6.71644" cy="4.47761" r="4.47761" fill="#ff9a38"/>
<rect x="22.3881" y="9.91479" width="14.3213" height="17.6262" rx="3" fill="#ff9a38"/>
<rect x="25.693" y="25.8884" width="7.71144" height="8.81308" fill="#ff9a38"/>
<circle cx="29.1045" cy="4.47761" r="4.47761" fill="#ff9a38"/>
<rect x="44.7761" y="9.91479" width="14.3213" height="17.6262" rx="3" fill="#ff9a38"/>
<rect x="48.0811" y="25.8884" width="7.71144" height="8.81308" fill="#ff9a38"/>
<circle cx="51.4926" cy="4.47761" r="4.47761" fill="#ff9a38"/>
<rect y="50.2134" width="14.3213" height="17.6262" rx="3" fill="#ff9a38"/>
<rect x="3.30493" y="66.1868" width="7.71144" height="8.81308" fill="#ff9a38"/>
<circle cx="6.71644" cy="44.7762" r="4.47761" fill="#ff9a38"/>
<rect x="22.3881" y="50.2134" width="14.3213" height="17.6262" rx="3" fill="#ff9a38"/>
<rect x="25.693" y="66.1868" width="7.71144" height="8.81308" fill="#ff9a38"/>
<circle cx="29.1045" cy="44.7762" r="4.47761" fill="#ff9a38"/>
<rect x="44.7761" y="50.2134" width="14.3213" height="17.6262" rx="3" fill="#ff9a38"/>
<rect x="48.0811" y="66.1868" width="7.71144" height="8.81308" fill="#ff9a38"/>
<circle cx="51.4926" cy="44.7762" r="4.47761" fill="#ff9a38"/>
</svg>
