<svg
   version="1.1"
   id="svg5506"
   width="908"
   height="560"
   viewBox="0 0 908 560"
   xmlns="http://www.w3.org/2000/svg"
   >
  <defs
     id="defs5510" />
  <g
     id="g5512">
    <path
       style="fill:#2b92a5;stroke-width:4.333;fill-opacity:1;stroke-dasharray:none;stroke:#2b92a5;stroke-opacity:1"
       d="m 600.53063,542.8904 -6.8027,-3.81573 -17.86397,-4.46648 c -9.82517,-2.45658 -19.06396,-4.39778 -20.53063,-4.31379 -4.18093,0.23943 -14.448,-2.5132 -16.77066,-4.49625 l -2.10402,-1.79638 -18.56265,-0.8742 -18.56267,-0.8742 L 482,513.89963 c -9.53333,-4.59456 -19.86053,-9.01856 -22.94935,-9.83111 -8.49113,-2.23369 -27.38288,-11.31647 -30.2573,-14.54711 l -2.53999,-2.85474 h -8.05372 -8.05372 l -3.53191,-3.38378 -3.53189,-3.38377 -6.15531,1.64629 -6.1553,1.6463 -5.7191,-2.81984 -5.71908,-2.81986 -8.90293,-0.42862 c -4.89661,-0.23575 -9.34661,0.0151 -9.88889,0.55733 -1.83591,1.83591 -7.28939,0.99919 -12.92796,-1.98352 -3.08746,-1.6332 -7.62442,-3.04808 -10.08215,-3.14417 l -4.4686,-0.17472 -7.19935,-7.85582 c -3.95964,-4.3207 -8.45229,-10.40582 -9.98368,-13.52249 -2.84293,-5.78596 -3.36266,-6.10737 -9.27506,-5.73593 -1.86742,0.11733 -4.96206,-1.0191 -6.87698,-2.52538 C 297.81281,441.23241 295.64403,440 294.90821,440 c -0.7358,0 -2.93237,-1.895 -4.88125,-4.21111 l -3.54341,-4.21112 0.75704,-3.01626 c 0.94613,-3.76968 -0.30474,-7.22818 -2.61427,-7.22818 -0.96528,0 -3.56729,-1.5249 -5.78225,-3.38866 l -4.02722,-3.38868 -2.81172,-7.51498 c -1.54644,-4.13324 -4.4588,-9.39092 -6.4719,-11.68372 -2.01311,-2.29281 -4.47732,-6.23616 -5.47602,-8.76301 -2.14656,-5.43109 -7.80005,-11.92761 -10.37982,-11.92761 -1.00303,0 -4.48574,-1.2127 -7.73932,-2.69488 l -5.91564,-2.6949 -3.37339,0.84668 -3.3734,0.84667 -6.55165,-2.81845 c -3.60343,-1.55015 -8.54044,-2.84556 -10.97116,-2.87871 -2.43072,-0.0332 -7.07636,-1.44985 -10.32364,-3.14825 l -5.90415,-3.088 -4.17283,2.46204 -4.17284,2.46202 -3.92301,-1.10061 c -2.15767,-0.60535 -5.67161,-0.62207 -7.80879,-0.0372 -2.13716,0.58491 -4.32153,0.79413 -4.85414,0.46496 -0.53263,-0.32917 -2.00894,0.98956 -3.28071,2.93052 -1.27176,1.94096 -3.84828,4.85021 -5.72557,6.465 l -3.41328,2.93597 2.91306,3.70336 c 1.60219,2.03686 2.91307,5.51139 2.91307,7.72119 v 4.0178 l -7.66667,7.11569 c -4.21666,3.91364 -8.11666,7.12471 -8.66666,7.13572 -0.55,0.0107 -1,1.77398 -1,3.91771 v 3.89771 l -3.45186,4.10229 c -1.89853,2.25627 -4.20553,4.10231 -5.12669,4.10231 -0.92115,0 -2.78608,1.22793 -4.14428,2.72873 l -2.46947,2.72872 -6.7643,-0.37089 -6.76429,-0.37091 -4.17872,2.97551 C 108.37792,432.86189 108,432.79168 108,427.95309 v -4.04692 l -2.33333,1.19244 c -1.28334,0.65586 -4.20788,1.54687 -6.498987,1.98006 l -4.165651,0.7876 -7.712165,-4.00132 -7.712167,-4.00132 -3.455516,0.40152 -3.455517,0.40152 -0.409998,5.66666 c -0.393044,5.43236 -1.836041,7.17131 -3.592497,4.3293 l -0.82654,-1.33736 -11.585483,-0.0596 c -17.549334,-0.0904 -19.064801,-0.0432 -26.253222,0.81632 l -6.66774,0.79728 -3.265148,-3.47559 -3.26515,-3.47559 2.266223,-3.83641 2.266221,-3.8364 v -52.26905 -52.26906 l -3.414384,-2.68576 -3.414385,-2.68574 0.705872,-1.83948 c 0.388229,-1.01176 0.104176,-1.83952 -0.631229,-1.83952 -1.573472,0 -1.074082,-5.12854 0.778998,-8 0.709876,-1.1 2.018204,-4.7 2.907396,-8 l 1.616711,-6 L 19.955832,194 c 0.04044,-47.66667 0.456659,-88.98592 0.924941,-91.82056 l 0.851423,-5.1539 5.839996,0.80046 c 3.211999,0.440253 8.815241,2.080376 12.451652,3.64472 l 6.611653,2.84425 11.627756,-9.824149 c 6.395264,-5.403285 20.241795,-17.924154 30.770067,-27.824154 10.528273,-9.9 20.4528,-19.0459 22.0545,-20.324222 3.32408,-2.652964 67.35981,-21.10772 71.92901,-20.729561 1.65154,0.136687 10.87261,-3.170295 20.49124,-7.348848 19.99765,-8.6874344 20.35493,-8.7386929 29.99748,-4.303625 l 7.16112,3.293742 23.31904,23.372924 L 287.30476,64 l 4.01428,0.01107 c 7.28879,0.02011 31.91837,3.764658 37.26235,5.665162 l 5.24805,1.866394 9.41861,-2.255356 c 5.18024,-1.240446 24.41767,-8.937538 42.74984,-17.10465 l 33.33123,-14.849284 h 4.76476 4.76477 l 9.23734,8.103002 9.23734,8.103002 15.41932,-0.835522 15.41934,-0.835522 31.914,22.961131 L 542,97.790556 l 15.77936,3.965274 15.77936,3.96527 14.6892,13.34841 14.6892,13.34841 23.53144,-5.5675 c 28.21059,-6.67459 27.86935,-6.6646 36.59549,-1.07114 9.65715,6.19025 9.02648,4.91205 18.9884,38.48413 l 8.98014,30.2634 3.4837,-0.64848 3.48371,-0.64849 4.27955,2.66611 c 2.35376,1.46636 5.55137,5.15908 7.10582,8.20605 l 2.82627,5.53993 -0.86759,3.51238 C 710.34423,217.20207 704.33115,224 701.75055,224 c -2.2163,0 -2.6601,-2.2234 4.0977,20.529 l 5.84826,19.69011 4.48508,3.83625 c 2.4668,2.10995 5.14116,3.86065 5.94302,3.89045 2.08728,0.0776 12.54206,12.80019 12.54206,15.26266 0,1.13486 -1.5,3.04622 -3.33334,4.24748 L 728,293.64003 v 3.30749 C 728,303.88207 718.44735,312 710.28723,312 c -1.49624,0 -5.72936,1.93081 -9.40692,4.29071 l -6.6865,4.29072 -0.57494,-1.72483 c -0.31622,-0.94865 -4.02983,-6.02947 -8.25247,-11.29071 -4.22264,-5.26124 -9.19841,-12.56589 -11.05728,-16.23256 -1.85885,-3.66666 -6.43884,-10.15158 -10.17776,-14.41092 -3.73892,-4.25934 -6.79803,-8.2173 -6.79803,-8.79546 0,-0.57816 -2.04025,-3.152 -4.5339,-5.71963 l -4.53391,-4.66841 -0.95741,-10.21704 -0.95742,-10.21703 -2.84201,-0.69577 c -1.56311,-0.38267 -16.13123,-3.27042 -32.3736,-6.41722 l -29.53159,-5.72144 -18.18484,13.63227 c -19.22081,14.40887 -31.31961,21.14868 -36.26682,20.20296 l -2.99519,-0.57257 -3.82937,3.4668 c -9.6513,8.73749 -16.2334,13.33817 -23.00271,16.07816 -4.02851,1.63061 -8.91713,3.81012 -10.86361,4.84336 -1.94648,1.03324 -4.64648,1.87934 -6,1.88024 -1.35352,8.9e-4 -4.20427,1.50089 -6.335,3.33333 -2.13074,1.83244 -5.73074,3.45057 -8,3.59584 -2.26927,0.14528 -6.52595,0.45136 -9.45928,0.68016 -2.93334,0.22881 -13.09335,0.6272 -22.57782,0.88533 l -17.24446,0.46931 -3.08887,-3.08887 c -1.69887,-1.69886 -3.08885,-4.01613 -3.08885,-5.14946 0,-2.51607 -1.01771,-2.52764 -5.33334,-0.0605 -1.83333,1.04803 -4.38436,1.92678 -5.66894,1.95275 -2.04818,0.0415 -38.80794,20.05763 -41.27164,22.47297 -0.51732,0.50716 0.98268,12.08304 3.33333,25.72419 l 4.27392,24.802 19.33333,16.40735 c 10.63334,9.02404 20.32823,17.25297 21.54422,18.2865 l 2.21088,1.87918 17.56448,-14.3825 17.56449,-14.38249 19.55796,-0.24781 19.55797,-0.24782 8.68306,2.3617 c 4.77569,1.29894 15.57569,6.00425 24,10.45625 17.0092,8.98884 29.18633,13.33901 49.53378,17.69551 7.51235,1.60844 20.77486,5.54141 29.47224,8.73996 L 610.83584,412 h 5.13023 5.13021 l 3.45187,4.10231 L 628,420.2046 v 3.77917 3.77918 l -3.8214,3.21549 -3.8214,3.21551 -22.84527,5.1381 c -12.56489,2.82596 -22.81281,5.48232 -22.77314,5.90303 0.0396,0.42071 3.21906,9.76492 7.06534,20.76492 l 6.99324,20 29.26799,12.00087 29.26797,12.00086 7,6.74367 7,6.74365 v 2.84779 c 0,1.56628 -1.35,4.41397 -3,6.32821 l -3,3.48042 -16,4.64265 c -8.8,2.55345 -19.6,4.9296 -24,5.28033 l -8,0.6377 z m 38.13604,-3.86695 c 19.53076,-5.48206 20,-5.77509 20,-12.48904 v -5.13906 l -6.44698,-5.09604 -6.44696,-5.09604 -27.2197,-11.05847 c -14.97083,-6.08216 -28.43487,-12.18081 -29.92008,-13.55257 l -2.70039,-2.49412 -6.56797,-20.00291 c -3.61239,-11.00161 -6.29144,-20.27945 -5.95347,-20.61743 0.33799,-0.33798 11.40875,-3.09598 24.60169,-6.12889 26.04927,-5.98844 27.85386,-6.90636 27.85386,-14.16828 v -4.85751 l -3.08104,-2.49488 -3.08106,-2.49488 h -5.52238 -5.52239 l -13.99656,-5.38022 c -7.69812,-2.95912 -18.19657,-6.25536 -23.32991,-7.32496 C 566.2,399.55853 556,397.07141 548.66667,395.1012 l -13.33334,-3.5822 -17.48734,-8.94609 c -9.61804,-4.92035 -20.74266,-9.89243 -24.72135,-11.04907 l -7.234,-2.10299 -20.30875,-0.44884 -20.30873,-0.44882 -1.89915,2.09853 c -1.04453,1.1542 -6.81845,16.48648 -12.8309,34.07175 -12.5077,36.58249 -11.38642,34.44946 -19.26946,36.65657 -7.86906,2.2032 -8.41908,3.48023 -2.67806,6.21792 2.60576,1.2426 4.73774,2.90381 4.73774,3.6916 0,2.11437 5.33971,5.12099 10.66667,6.00605 l 4.66667,0.77536 0.37456,15.51984 0.37454,15.51984 2.95879,1.8972 c 3.83333,2.45798 22.93833,10.36856 28.95877,11.99064 2.56667,0.69154 12.46667,5.03756 22,9.65784 l 17.33334,8.40054 17.33333,0.6977 17.33333,0.69772 4.47916,2.29259 c 2.46354,1.26093 8.46354,2.74909 13.33334,3.30703 13.81816,1.58316 40.80401,8.94885 48.52601,13.24501 l 6.99483,3.8916 6.66666,-0.72847 C 619,544.0294 629.5,541.59643 638.66667,539.02345 Z m -212,-66.5001 V 460 h -1.83051 c -3.45757,0 -14.32672,-5.52832 -13.82549,-7.03199 0.27577,-0.82733 -1.59192,-2.57148 -4.15044,-3.87588 l -4.65184,-2.37165 -1.71246,1.42121 c -0.94185,0.78167 -2.40301,0.99443 -3.24704,0.47279 l -1.53458,-0.94843 0.90145,2.84022 0.90144,2.8402 -2.42527,0.78801 c -1.33389,0.4334 -3.32526,1.12508 -4.42526,1.53705 -3.919,1.46776 -16.92232,-3.71569 -18.29502,-7.29285 l -0.65696,-1.71201 h -5.3155 -5.31551 l -0.64759,-2.33334 c -0.35618,-1.28333 -2.55001,-3.55234 -4.87517,-5.04225 l -4.22759,-2.70892 v -3.45023 -3.45022 l -5.66818,-5.50752 c -3.11751,-3.02914 -6.19472,-5.50752 -6.83824,-5.50752 -0.64354,0 -1.93655,-1.85048 -2.87338,-4.11218 -0.93681,-2.26168 -3.01998,-4.61276 -4.62926,-5.22461 -1.60928,-0.61184 -4.18618,-3.71136 -5.72643,-6.88783 l -2.80047,-5.77538 4.91666,-4.26458 4.91664,-4.26456 -3.89812,-4.06877 C 326.58857,381.83095 323.96637,380 322.90543,380 c -1.06095,0 -6.40428,-4.25109 -11.87408,-9.44687 l -9.94511,-9.44686 -3.23715,0.81246 c -1.78042,0.44686 -4.42484,0.17684 -5.87645,-0.60004 l -2.63931,-1.41252 v -3.28641 -3.28643 h -2.67972 c -1.47384,0 -3.70718,1.2 -4.96298,2.66667 -1.2558,1.46667 -3.19992,2.66593 -4.32028,2.66503 l -2.03702,-10e-4 0.456,14.84534 0.456,14.84534 -2.37164,5.25936 -2.37164,5.25938 1.62742,6.23026 c 2.14501,8.21178 5.33797,12.36887 10.9441,14.24871 l 4.5931,1.54015 0.40446,6.9292 0.40446,6.9292 6.26221,3.93284 6.2622,3.93284 4.46505,0.0253 4.46506,0.0253 3.86828,4.14102 c 2.12756,2.27754 3.86828,5.02209 3.86828,6.09897 0,1.07689 3.39133,5.51344 7.53629,9.859 l 7.53629,7.90101 h 3.93674 c 2.16521,0 6.9931,1.53512 10.72865,3.41139 l 6.79191,3.41137 3.40172,-0.95396 C 360.46923,476.01109 365.6,475.49779 370,475.39508 l 8,-0.18672 6.98403,3.27117 6.98402,3.27116 5.39479,-2.11913 5.39479,-2.11913 3.96886,3.8797 3.96888,3.8797 7.98564,-0.1124 7.98566,-0.1124 v -12.52335 z m -116.54883,-38.2843 c -4.28035,-4.28034 -4.30264,-5.37445 -0.16475,-8.0857 4.61138,-3.0215 5.5819,-2.73898 7.27496,2.11778 l 1.48894,4.27115 -2.57399,2.57397 -2.57397,2.57399 z m 81.04769,18.92814 3.291,-1.49948 -0.22826,-3.50052 L 394,444.66667 405.16161,441.0606 c 6.1389,-1.98333 11.38094,-3.82536 11.64898,-4.09341 0.78717,-0.78718 21.82936,-62.30052 21.31145,-62.30052 -0.25937,0 -6.93192,5.3052 -14.82788,11.78933 l -14.35627,11.78935 -20.78692,-17.78935 -20.7869,-17.78933 h -25.10303 -25.10301 l -2.4981,1.33693 -2.49809,1.33695 -0.82628,-1.33695 c -0.45445,-0.73531 -2.12208,-1.33693 -3.70584,-1.33693 h -2.87957 l 7.91449,7.99794 7.91448,7.99795 2.10356,-0.66764 2.10355,-0.66764 5.22562,5.35152 5.22562,5.35152 -4.95207,4.08191 c -6.382,5.26058 -6.26471,6.27838 1.70363,14.78362 3.66062,3.90728 6.66062,7.55415 6.66666,8.10415 0.007,0.55 0.92583,1 2.04398,1 1.11814,0 2.6033,1.5 3.30033,3.33333 0.69703,1.83334 2.11317,3.33334 3.14699,3.33334 2.58114,0 6.56628,6.4031 5.80262,9.32336 l -0.62356,2.38448 5.75759,4.81274 c 3.16667,2.64702 7.10464,4.81275 8.75104,4.81275 1.6464,0 4.42995,1.34952 6.18567,2.99893 2.41753,2.27116 10.45738,6.45727 14.58358,7.59324 0.14883,0.0409 1.75155,-0.60028 3.5616,-1.42498 z m -267.29473,-28.39182 6.26645,0.83128 3.93138,-3.24306 c 2.16225,-1.7837 4.99037,-3.62982 6.28472,-4.1025 2.77552,-1.0136 5.40241,-7.16841 4.51226,-10.5723 l -0.62509,-2.39036 2.87975,-1.50246 c 4.77148,-2.48946 15.5464,-14.20485 15.5464,-16.90334 0,-1.38628 -1.4442,-4.64866 -3.20934,-7.24972 l -3.20934,-4.72923 5.20934,-4.18633 c 2.86514,-2.3025 5.20934,-5.0104 5.20934,-6.01758 v -1.83122 l -4.33334,-0.9105 c -5.18686,-1.08982 -8.01765,-3.66402 -31.15268,-28.3289 L 113.33333,314.61163 V 311.30581 308 h -7.25464 -7.254645 l -1.078689,-1.66667 c -0.593279,-0.91666 -1.078689,-10.72392 -1.078689,-21.79389 V 264.41221 L 84,253.81769 71.333333,243.22317 V 240.61159 238 L 47,229.749 22.666667,221.498 v 29.37912 29.37913 l -2.16096,7.53854 c -1.188528,4.1462 -2.755528,8.28076 -3.482223,9.18789 l -1.321264,1.64936 1.034273,3.68397 c 0.568851,2.0262 0.948039,4.09743 0.842642,4.60274 -0.1054,0.5053 0.99618,1.29574 2.447949,1.75652 l 2.639583,0.83777 v 53.95705 53.95707 l -2.26617,3.45861 -2.26617,3.4586 3.080549,2.49448 c 3.698123,2.99456 10.058657,3.20466 15.237987,0.50332 l 3.786196,-1.97472 2.396604,1.28263 c 1.318132,0.70544 7.114344,1.25516 12.88047,1.2216 5.766127,-0.0336 11.533867,0.34579 12.8172,0.84297 l 2.333334,0.90399 v -4.69821 -4.6982 l 3.666408,-1.22215 3.666408,-1.22213 6.000258,2.60866 c 3.300143,1.43476 6.912111,3.4027 8.026598,4.37318 l 2.026338,1.76453 4.640328,-1.05631 c 2.552185,-0.58097 5.990325,-1.48937 7.640325,-2.01868 l 3,-0.96237 v 4.20839 4.20837 l 4.13552,-3.47981 4.13551,-3.4798 z m 147.99876,-31.641 c 0.80508,-2.30944 1.46377,-11.30944 1.46377,-20 v -15.80104 h 2.61976 c 1.44087,0 3.26198,-1.2 4.04691,-2.66666 C 280.78493,353.2 282.42425,352 283.64292,352 h 2.21576 l -5.26268,-3.82717 -5.26267,-3.82719 -6.66666,-0.96427 c -7.85231,-1.13576 -10,-2.59772 -10,-6.80712 v -3.09922 L 239,320.40417 l -19.66667,-13.07084 -5.13392,-0.24788 c -2.82365,-0.13633 -6.12365,-1.10349 -7.33333,-2.14925 L 204.66667,303.03483 194,303.32315 c -5.86667,0.15857 -16.66667,1.2722 -24,2.47472 l -13.33333,2.18641 -20.33334,0.008 L 116,308 v 3.36187 3.36185 l 20.1398,21.79059 20.1398,21.79058 6.8602,1.42823 c 3.77311,0.78552 11.3602,1.41748 16.8602,1.40437 l 10,-0.0239 2.85933,-2.6571 2.85935,-2.65709 0.83383,1.34917 c 1.65657,2.68038 9.59866,5.69368 16.78082,6.36678 4.03334,0.378 8.28058,1.54166 9.43832,2.58593 l 2.10499,1.89867 6.56168,0.008 c 3.60892,0.004 8.10167,0.81186 9.98388,1.7941 1.88221,0.98223 5.08145,2.20232 7.10943,2.71132 4.56877,1.14668 9.15569,6.1219 13.66308,14.8197 5.94024,11.46272 7.39674,12.33604 9.67485,5.80104 z m 68.98484,-31.80104 h 24.63631 l -0.83611,-1.35286 c -0.90484,-1.46406 -8.61391,-45.79142 -8.63921,-49.67572 -0.008,-1.29906 1.48461,-3.04536 3.31794,-3.88068 l 3.33334,-1.51878 v -41.78598 -41.78598 h -17.2923 -17.29229 L 327.70771,237.66667 327.33333,254 314.66667,254.66667 302,255.33333 l -11.06543,6.49842 -11.06542,6.49841 -13.93458,-0.23925 c -15.53614,-0.26674 -16.4309,0.34385 -7.99869,5.45829 l 5.85159,3.54921 -2.73419,11.78412 c -1.5038,6.48128 -2.89507,13.74926 -3.09169,16.15107 -0.19663,2.40181 -1.06006,5.21345 -1.91872,6.24809 -0.85868,1.03463 -2.00935,3.55671 -2.55704,5.60462 l -0.9958,3.72346 -2.8945,0.0284 c -4.801,0.0472 -3.95492,1.63031 3.7378,6.99395 l 7.33334,5.11305 0.42189,3.62739 c 0.23204,1.99507 0.60015,3.62739 0.81801,3.62739 0.21787,0 3.49196,0.58712 7.27576,1.30469 l 6.87966,1.30471 8.02994,5.45304 8.02996,5.45302 -0.87045,2.74258 -0.87047,2.74257 1.4856,-0.91815 c 0.81708,-0.50498 1.84134,0.009 2.27612,1.14194 l 0.79054,2.06009 2.35808,-1.262 c 1.29693,-0.69411 2.7481,-0.87197 3.22481,-0.39527 1.16036,1.16036 11.69025,2.82478 13.92627,2.20127 0.97664,-0.27229 12.86205,-0.49511 26.41201,-0.49511 z m -92.16219,-43.15084 c 1.907,0.70338 6.59942,-8.49184 6.84739,-13.41806 0.11347,-2.25376 1.45852,-8.89776 2.98904,-14.76443 3.30145,-12.65487 3.65536,-11.20949 -4.20684,-17.18096 L 247.97692,268 h -3.9222 -3.92221 l -1.32258,-2.33333 -1.32258,-2.33334 -1.96804,2.66464 -1.96804,2.66464 -3.77564,-2.7786 c -2.07659,-1.52822 -5.40163,-3.18272 -7.38895,-3.67665 l -3.61333,-0.89805 -1.38667,2.59102 C 216.624,265.3254 216,267.71937 216,269.22028 v 2.72892 l 3.33333,0.83661 3.33334,0.83662 -0.0444,4.18878 c -0.0244,2.30383 -1.17058,5.53879 -2.54706,7.18879 l -2.5027,3 h -4.1196 -4.11962 l 0.008,1.66667 c 0.008,1.51126 2.12559,3.17286 9.99158,7.83873 1.46666,0.86999 3.56666,2.00463 4.66666,2.52144 l 2,0.93964 v 4.11616 4.11616 l 8.5757,6.05459 8.57569,6.05457 2.09097,-1.81333 c 1.15004,-0.99734 2.70247,-1.58779 3.44986,-1.31214 z m 459.64384,-7.51582 c 1.02056,0 4.54222,-0.91543 7.82587,-2.03428 l 5.97029,-2.0343 2.26723,-3.83809 c 1.24697,-2.11096 2.26723,-4.99095 2.26723,-6.39997 0,-1.40902 1.43294,-3.90804 3.18433,-5.55339 l 3.18433,-2.99152 -0.67873,-2.59548 c -0.74769,-2.85917 -11.81277,-13.29335 -17.92777,-16.90556 l -3.88587,-2.29544 -3.86271,-12.67599 C 704.55576,246.37087 701.64799,236.76667 700.21855,232 l -2.59898,-8.66667 4.00599,-1.39026 c 5.32467,-1.84791 7.70777,-5.38382 7.70777,-11.43631 V 205.5232 L 704.84256,200.7616 700.3518,196 h -5.50924 c -3.03007,0 -5.50923,-0.19487 -5.50923,-0.43303 0,-0.23817 -4.16686,-14.4606 -9.25969,-31.60538 l -9.25969,-31.17236 -2.8466,-2.14719 c -1.56564,-1.18096 -5.3983,-3.54112 -8.51703,-5.2448 l -5.67044,-3.09761 -10.22327,2.27447 -10.22328,2.27446 v 53.05487 53.05485 l 7,1.18753 7,1.18752 1.0912,8 c 0.60016,4.4 1.3865,9.99876 1.74742,12.4417 l 0.65621,4.44168 3.91083,2.22498 c 2.15094,1.22374 3.91461,3.04086 3.91925,4.03803 0.004,0.99719 3.04365,5.13408 6.75339,9.19311 3.70972,4.05902 8.55278,10.96137 10.76238,15.33854 2.20959,4.37718 7.27435,11.90702 11.25504,16.73299 3.9807,4.82597 7.23762,9.28657 7.23762,9.91245 0,0.62588 2.6581,-0.69086 5.9069,-2.92609 3.24879,-2.23523 6.74191,-4.06405 7.76248,-4.06405 z m -484.58972,-7 0.4492,-2.33334 h -2.55778 c -1.40678,0 -3.70078,-1.26885 -5.09776,-2.81968 -1.397,-1.55082 -3.92982,-3.35112 -5.6285,-4.00065 l -3.08849,-1.18096 0.42183,-3.66603 L 208.66667,286 213,286.0133 l 4.33333,0.0133 v -1.67955 c 0,-0.92465 0.6,-1.68045 1.33334,-1.68045 2.65646,0 1.25133,-6.62746 -2.1199,-9.9987 l -3.45324,-3.45322 0.96682,-2.27404 c 0.53174,-1.25072 1.03569,-3.47404 1.11989,-4.94071 l 0.15309,-2.66667 h -6.99944 -6.99944 l -5.6e-4,3.70851 c -3e-4,2.03969 -0.77813,4.00691 -1.72849,4.37159 l -1.72795,0.66308 -0.0296,5.07157 -0.0296,5.07159 -4.46558,5.55684 c -2.45612,3.05625 -5.56523,5.55682 -6.90915,5.55682 -3.4164,0 -3.05301,3.09035 0.55648,4.73263 1.65,0.75073 2.88484,1.98851 2.74408,2.75061 -0.28492,1.54259 12.61779,5.26602 13.87872,4.00508 0.43917,-0.43918 1.69489,-0.0545 2.79048,0.85467 2.65664,2.20481 9.46613,4.38943 13.56861,4.35307 l 3.31524,-0.0293 0.4492,-2.33333 z m -50.33921,-0.5851 18.07379,-2.26733 -2.28604,-2.28604 c -1.25732,-1.25732 -3.39052,-2.49665 -4.74046,-2.75407 -1.34992,-0.25742 -2.6411,-1.77352 -2.8693,-3.3691 l -0.41488,-2.90107 3.5162,-1.84233 3.51621,-1.84232 -12.73324,-8.39626 -12.73324,-8.39625 -3.36808,0.84533 L 156,270.71747 v -2.0584 c 0,-1.13212 -1.64699,-2.68459 -3.65997,-3.44992 l -3.65998,-1.39152 -4.5352,2.16268 -4.53518,2.16269 -1.40484,-1.40484 c -2.39579,-2.39579 -3.59244,-1.56131 -3.29823,2.3 0.15527,2.03765 -0.17061,4.43765 -0.72417,5.33333 L 133.17595,276 h -5.92131 -5.92131 v 4.14839 4.14838 l -4.84681,-0.90926 -4.84681,-0.90927 0.72198,2.76088 0.72199,2.76088 h -5.12982 c -2.8214,0 -5.50668,-0.60979 -5.9673,-1.35508 -1.93937,-3.13797 -3.319893,0.78489 -3.319893,9.43377 v 9.25464 l 28.333333,0.008 28.33333,0.008 18.07379,-2.26733 z m 208.84813,-9.80421 c 7.92628,-4.50977 15.61142,-8.34577 17.07808,-8.52445 1.46667,-0.17867 4.58687,-1.32118 6.93379,-2.53888 5.49256,-2.84986 5.73288,-2.8116 5.73288,0.91265 0,3.93388 4.2198,7.85584 8.25549,7.6728 4.42811,-0.20084 9.72079,-0.29313 21.07784,-0.36755 20.68595,-0.13553 28.39704,-1.34398 32.66667,-5.11938 1.46667,-1.29688 4.60979,-2.76892 6.98471,-3.27118 6.57373,-1.39025 6.34401,-2.49932 -2.31015,-11.15348 L 470.66667,262.88 v -3.27675 c 0,-1.8022 0.89221,-4.0172 1.98268,-4.92221 l 1.98269,-1.64548 3.35064,0.84095 c 4.21328,1.05746 10.12387,-0.35414 9.88323,-2.36038 -0.1,-0.83388 -0.1108,-2.33032 -0.0239,-3.32545 L 488,246.38136 l 2.09659,0.80455 c 1.15313,0.44249 3.26073,0.18149 4.68358,-0.57999 l 2.58699,-1.38452 -0.24803,-3.61069 c -0.28168,-4.10078 3.76174,-12.61714 8.87622,-18.69536 l 3.45616,-4.1074 5.90885,-0.40398 5.90887,-0.40397 -22.85036,-21.66667 -22.85036,-21.66666 -56.11759,0.0224 -56.11759,0.0224 -16.84358,21.64424 -16.84359,21.64425 16.84359,0.66667 16.84358,0.66666 0.35252,41.80196 0.35252,41.80195 1.90274,-0.73015 c 1.0465,-0.40157 8.38786,-4.41996 16.31414,-8.92973 z m -272.18089,-7.82371 c -0.41232,-0.66714 -0.39346,-2.14129 0.0419,-3.27588 l 0.7916,-2.06286 3.76775,0.75354 3.76774,0.75356 0.44499,-3.14434 0.44497,-3.14434 L 126,274.66667 132.66667,274 l 0.41952,-5.09563 0.41952,-5.09564 -3.56251,-3.57102 -3.56252,-3.57104 -11.52367,-4 -11.52368,-4 -0.38761,-12.65428 C 102.48876,221.0942 102.31138,220.84331 91.983449,220.50672 L 84,220.24655 l -0.10816,2.87672 c -0.05949,1.5822 -0.209491,5.27673 -0.333333,8.21006 l -0.22517,5.33334 -2.666666,0.0821 c -10.806335,0.33307 -9.317366,4.94172 5.358134,16.58448 l 12.604831,10 0.01852,10.47599 0.01852,10.47598 2.050474,-0.78684 2.05047,-0.78684 0.75885,1.97752 c 0.41735,1.0877 2.23005,1.97758 4.0282,1.97758 1.79816,0 2.93202,-0.54586 2.51969,-1.21302 z m 85.56581,-9.87212 c 0.21803,-1.42865 -0.2344,-3.35764 -1.0054,-4.28662 l -1.40181,-1.68908 3.53479,-2.78046 3.53478,-2.78046 -0.77608,-2.02246 c -0.42685,-1.11234 -0.44065,-2.8966 -0.0307,-3.965 l 0.74542,-1.94254 3.87939,0.77588 3.8794,0.77588 -0.0175,-2.5 c -0.009,-1.375 -1.7638,-3.7 -3.89821,-5.16667 -2.13441,-1.46667 -7.07655,-5.44137 -10.98253,-8.83268 -5.73236,-4.97704 -16.3781,-10.9252 -12.82162,-7.16391 0.52075,0.55074 0.0708,2.69548 -1,4.76608 C 176.66441,243.8278 176.732,244 181.33333,244 h 4 v 3.06667 c 0,1.68666 0.61967,3.68633 1.37704,4.4437 1.91366,1.91366 0.15427,5.82296 -2.6206,5.82296 -1.26038,0 -3.56857,1.35928 -5.12932,3.02062 l -2.8377,3.0206 1.21801,1.97081 1.21803,1.9708 4.05393,-0.42524 4.05395,-0.42523 v 4.72024 4.72024 l -2.79426,1.49544 -2.79426,1.49544 4.41877,3.02779 4.41876,3.02779 2.66404,-3.38678 c 1.46521,-1.86273 2.84243,-4.55568 3.06045,-5.98432 z m 305.69316,-1.64642 c 3.3,-1.65922 9.69438,-6.37338 14.20971,-10.47592 L 523.75276,256 h 4.96132 4.96132 l 7.36296,-4.21267 c 4.04963,-2.31696 14.76125,-9.83994 23.8036,-16.71774 l 16.44064,-12.5051 21.69204,4.13563 c 11.93061,2.27459 23.04203,4.46263 24.69203,4.86229 l 3,0.72668 v -5.47788 -5.47788 h -34 -34 V 198 174.66667 l -42.33334,0.0269 -42.33333,0.0269 8,7.57936 c 23.68827,22.44276 38,36.71683 38,37.89999 v 1.33128 l -6.61621,-0.35116 -6.61622,-0.35116 -2.68348,2.42851 c -4.72261,4.2739 -10.30053,17.7194 -7.08409,17.0761 2.98675,-0.59734 1.78229,1.58135 -3.32467,6.0139 -2.75477,2.39097 -5.82546,4.03416 -6.82378,3.65154 l -1.81512,-0.69568 0.76546,1.99479 0.76547,1.99477 -2.61701,1.40059 c -1.43936,0.77032 -2.61702,0.95947 -2.61702,0.42033 0,-0.53913 -0.67078,-0.30945 -1.49064,0.5104 l -1.49065,1.49066 -4.50935,-0.73178 -4.50936,-0.73176 v 3.80246 3.80246 l 7.58706,7.66706 7.58705,7.66705 3.41295,-0.81913 c 1.87712,-0.45054 6.11294,-2.17668 9.41294,-3.83588 z M 181.89095,276.52401 184,275.71469 v -3.90425 -3.90427 l -2.57407,1.3776 -2.57408,1.3776 -2.09258,-2.09258 c -2.6412,-2.64119 -2.68027,-6.45732 -0.0925,-9.04498 1.1,-1.1 2,-2.64286 2,-3.42857 -6e-5,-0.78572 1.61994,-1.42857 3.59994,-1.42857 h 3.6 l -1.6,-1.6 c -0.88,-0.88 -1.6,-2.63827 -1.6,-3.90727 v -2.30727 l -3,-0.42606 -3,-0.42607 -0.43568,-3.07339 c -0.23963,-1.69037 0.26202,-3.91408 1.11478,-4.9416 1.55331,-1.87162 0.79494,-4.65168 -1.26896,-4.65168 -0.60452,0 -1.43332,1.27794 -1.84176,2.83984 l -0.74264,2.83984 -1.97838,-0.75917 -1.97839,-0.75919 -3.48716,3.48716 c -1.91793,1.91795 -3.19863,4.23904 -2.846,5.15799 0.35264,0.91896 1.02076,3.69431 1.48473,6.16744 l 0.84356,4.4966 -6.22544,1.93332 -6.22544,1.93332 3.1754,3.42631 c 1.74647,1.88448 3.87852,3.19194 4.73788,2.90549 0.85936,-0.28645 5.03746,1.89044 9.28466,4.83755 8.3943,5.82477 8.51448,5.87325 11.61312,4.68418 z M 291.50596,259.33333 303.79469,252 h 10.76932 10.76932 v -15.69637 -15.69638 l 18.09328,-23.09924 c 9.9513,-12.70458 17.9013,-23.28972 17.66667,-23.52252 C 360.78571,173.68031 248.76059,139.29011 213,128.52285 l -2.33333,-0.70255 v 20.33725 20.33725 l -2.89908,3.08593 -2.8991,3.08594 h -7.1009 -7.10092 v 13.19156 13.19156 l -13.94767,10.46504 -13.94765,10.46504 2.64388,0.97802 c 1.45413,0.53792 2.98445,1.86554 3.40069,2.95027 0.41624,1.08472 4.02777,2.92311 8.02563,4.08532 l 7.26881,2.11309 7.61148,5.79612 c 4.18632,3.18787 8.81149,7.13275 10.27816,8.7664 1.46667,1.63366 4.01667,3.48656 5.66667,4.11759 1.65,0.63103 3,1.9328 3,2.89284 0,2.54301 7.35905,6.48193 12.35786,6.61452 l 4.3088,0.11427 1.74227,2.4625 c 2.14607,3.03322 5.02935,3.18284 6.12867,0.31806 l 0.82289,-2.14446 3.10624,2.03528 c 4.03327,2.6427 7.81624,3.14568 25.47521,3.38718 l 14.60863,0.1998 z m -147.1298,4.21498 c 2.35977,-0.98176 5.04092,-1.53163 5.95808,-1.22192 l 1.66757,0.5631 -0.81022,-2.11141 -0.81023,-2.11141 h 2.73063 c 1.50185,0 3.10145,-0.6 3.55468,-1.33334 C 157.11989,256.6 158.73685,256 160.25992,256 h 2.76921 l -0.83716,-6.10772 c -1.0243,-7.47312 0.3201,-10.21569 6.42859,-13.11437 2.59203,-1.22999 4.71277,-2.76146 4.71277,-3.40323 0,-2.17635 -11.12994,-10.70801 -13.96909,-10.70801 -3.11645,0 -27.21586,5.08425 -28.83103,6.08248 -0.55859,0.34522 -1.41798,-0.0233 -1.90976,-0.81907 l -0.89414,-1.44675 -6.38782,0.33904 -6.38782,0.33904 -3.42993,-2.24737 c -1.88645,-1.23605 -4.05103,-2.24737 -4.81016,-2.24737 h -1.38025 v 12.39184 12.39184 l 11.36315,3.70057 11.36314,3.70056 2.12425,3.24201 c 1.67639,2.5585 5.97924,5.76494 9.52562,7.0984 0.20688,0.0777 2.30688,-0.66182 4.66667,-1.64358 z M 78.777825,234.66667 c 2.89439,0 3.275056,-1.86991 3.725726,-18.3014 L 82.877512,202.73055 59.772089,202.36527 36.666667,202 v -8.5752 -8.57521 l 9.242502,-6.59408 9.242503,-6.59408 2.406072,1.50262 2.406072,1.50262 h 15.873548 15.873548 l 0.836613,-3.33334 C 93.007663,169.5 94.133496,168 95.049376,168 h 1.665239 l -0.01253,-11 -0.01253,-11 1.795577,0.38012 c 0.987568,0.20905 2.511978,-0.21445 3.387588,-0.94113 l 1.592,-1.32126 6.60098,3.23278 c 3.63053,1.77802 7.05098,3.25153 7.60098,3.27446 0.55,0.0229 1,-15.8583 1,-35.29164 V 80 H 97.980568 77.294469 L 61.835305,93.193065 46.376143,106.38613 39.521405,103.33202 c -3.770106,-1.67976 -9.104738,-3.443829 -11.854738,-3.920149 l -5,-0.866039 v 60.399358 60.39936 l 25.666666,8.7031 c 14.116667,4.78672 26.236667,8.2342 26.933334,7.66107 0.696666,-0.57313 2.276688,-1.04205 3.511158,-1.04205 z m 69.644565,-12.61582 15.7557,-3.44606 11.8666,-8.70984 11.86659,-8.70984 0.37769,-14.25922 0.3777,-14.25922 L 198,172 l 9.33333,-0.66667 0.35084,-45.66666 L 208.03501,80 H 164.01751 120 v 35.88889 35.88888 l -1.66667,0.56683 c -1.71867,0.58451 -2.68151,0.25979 -9.92481,-3.34717 -2.34198,-1.16624 -5.41646,-1.81752 -6.83217,-1.44731 l -2.574013,0.67312 -0.0738,10.17084 -0.0738,10.17084 -1.93848,1.41745 c -1.066164,0.7796 -2.165888,2.6025 -2.443832,4.05087 l -0.50535,2.63343 -17.455951,0.37068 -17.455951,0.37068 -1.626038,-1.95926 -1.62604,-1.95925 -8.568216,6.16383 -8.568212,6.16382 v 7.7266 7.72659 l 22.86331,0.36483 22.86331,0.36481 0.13669,7.98799 0.13669,7.98797 L 92,218.30916 c 4.033333,0.18325 8.23333,0.73329 9.33333,1.22231 1.1,0.48901 2.7767,0.76205 3.726,0.60674 0.94931,-0.15529 3.78836,0.99224 6.30902,2.5501 2.52066,1.55785 5.1094,2.50714 5.75275,2.10952 0.64336,-0.39762 3.8043,-0.24623 7.02432,0.33642 3.22002,0.58264 6.45458,0.9026 7.18791,0.71102 0.73334,-0.19159 8.4234,-1.89907 17.08906,-3.79442 z M 630.66667,173.33333 C 630.66667,148.4 630.41948,128 630.11735,128 c -0.30212,0 -6.47935,1.40144 -13.72718,3.11432 l -13.17786,3.11432 -6.60615,-5.88707 c -3.63339,-3.23789 -10.31423,-9.17579 -14.84629,-13.19533 l -8.24014,-7.30825 -15.75986,-4.15022 L 542,99.537539 510.66667,77.046396 479.33333,54.555255 l -15.67484,0.207721 -15.67484,0.207723 -4.99182,-3.68432 C 440.24632,49.260004 437.4,46.927504 436.66667,46.103045 428.99475,37.477803 423.9278,36.997823 409.44572,43.524461 l -10.77905,4.857796 V 110.19113 172 H 481.33333 564 v 23.33333 23.33334 h 33.33333 33.33334 z M 396,110.7429 V 49.485801 l -13.45183,5.964219 c -7.3985,3.28032 -17.4485,7.781447 -22.33333,10.002504 -4.88483,2.221057 -12.8804,4.883851 -17.76792,5.917319 l -8.88643,1.879032 -5.78024,-1.938623 c -3.17914,-1.066244 -13.65186,-2.734712 -23.27272,-3.707708 l -17.49246,-1.769085 -22.75752,-23.337858 -22.75752,-23.337857 -9.20819,-3.706923 -9.20817,-3.706924 -18.95168,8.106783 c -10.42343,4.458732 -20.26726,8.002883 -21.87518,7.875891 C 180.64891,27.59958 164.33333,31.659151 146,36.747839 L 112.66667,46 96,62.295779 79.333333,78.591557 l 65.635907,0.03756 65.63589,0.03755 0.36411,23.530393 0.36409,23.5304 75.33334,23.06517 75.33333,23.06516 17,0.0711 17,0.0711 z m 305,395.95682 -3.66667,-2.89327 v -5.11804 -5.11802 l 4.10231,-3.45187 c 2.25625,-1.89852 4.80625,-3.4652 5.66667,-3.48151 0.8604,-0.0163 3.06436,-1.20296 4.89769,-2.63701 1.83333,-1.43405 5.23,-2.62071 7.54815,-2.63701 l 4.2148,-0.0296 3.45186,4.1023 c 7.17062,8.52179 -1.9611,21.3554 -16.61446,23.34978 l -5.93368,0.80758 L 701,506.69977 Z m 14.07751,-0.81881 6.2192,-2.11911 3.35165,-3.9832 c 5.56905,-6.61844 3.93968,-14.85187 -3.25172,-16.43136 l -3.95888,-0.86952 -8.38555,4.90755 c -9.46274,5.53797 -10.33648,6.50888 -10.36513,11.51796 l -0.0204,3.56989 3.51315,2.76344 c 4.22005,3.31949 4.94088,3.35551 12.89769,0.64435 z m 47.4866,-288.44502 -3.89744,-3.89742 v -4.66694 -4.66693 l 3.45185,-4.10229 L 765.57039,196 h 5.19377 5.19377 l 4.02435,3.66667 4.02433,3.66666 0.82448,4.30556 0.82447,4.30555 -4.69445,4.69445 -4.69444,4.69444 h -4.90256 -4.90258 z m 17.68173,-0.9917 2.42083,-2.19083 v -4.87527 -4.87526 l -2.70358,-2.90194 c -3.21017,-3.44573 -8.03742,-4.87264 -12.6055,-3.72612 l -3.30908,0.83052 -2.02426,3.91448 c -6.20288,11.99506 8.1829,22.90931 18.22159,13.82442 z m 98.93832,-5.75095 c -3.10775,-1.25567 -8.52175,-7.53679 -8.51005,-9.87305 0.0203,-4.05354 3.10637,-11.79955 5.64237,-14.1622 L 879.16949,184 h 4.46924 4.46926 l 4.07596,3 c 4.8022,3.53452 7.81605,8.81837 7.81605,13.70301 v 3.50212 l -3.89744,3.89743 -3.89743,3.89744 -5.10257,-0.0845 c -2.8064,-0.0465 -6.36969,-0.5965 -7.9184,-1.22224 z m 15.58507,-3.92401 c 9.89017,-9.89016 -6.50031,-27.96327 -17.32408,-19.10256 L 874.59487,190 l -0.74166,6.66667 -0.74166,6.66666 1.84269,2.44688 c 1.71751,2.28063 7.82689,4.43314 13.48165,4.74998 1.33975,0.0751 4.18975,-1.61736 6.33334,-3.76096 z"
       id="path5996" />
  </g>
</svg>
