<svg width="74" height="82" viewBox="0 0 74 82" fill="none" xmlns="http://www.w3.org/2000/svg">
<path d="M4.09143 82.0001H70.3615C71.9128 82.0001 72.8735 80.3104 72.0801 78.9773L57.2679 54.0868C57.226 54.0165 57.1924 53.9525 57.1596 53.8775C56.3473 52.0228 44.9374 25.8771 46.1744 23.5674C47.1788 21.6919 43.3057 24.2229 41.579 25.4087C41.0756 25.7544 40.7704 26.3178 40.7414 26.9277L39.4093 54.9084C39.3835 55.4491 38.6115 55.518 38.4904 54.9904C38.4826 54.9563 38.4786 54.9213 38.4786 54.8863V45.3564V33.9051V28.9192C38.4786 28.2666 38.1608 27.6544 37.616 27.2952C35.7565 26.0692 31.6321 23.529 32.8351 25.9622C34.3744 29.0755 24.6248 44.955 18.2134 55.897C13.6302 63.7189 6.29251 73.6966 2.48039 78.751C1.478 80.08 2.42675 82.0001 4.09143 82.0001Z" fill="#991c1f"/>
<path d="M21.425 9.15564V9.79618C21.425 11.1466 21.9868 12.4362 22.9757 13.3559L23.1504 13.5183C23.6595 13.9918 24.284 14.3232 24.9614 14.4794L27.0667 14.965C27.6355 15.0962 28.0384 15.6026 28.0384 16.1863V16.1863C28.0384 16.6357 28.279 17.0507 28.669 17.274L30.8982 18.5506L32.5069 19.4987" stroke="#991c1f" stroke-width="4" stroke-linecap="round"/>
<path d="M31.855 2L31.557 2.56701C30.9287 3.76243 30.8261 5.16531 31.2736 6.43946L31.3527 6.66451C31.583 7.32043 31.9817 7.90433 32.5086 8.35776L34.1464 9.76699C34.5888 10.1477 34.7099 10.7835 34.4384 11.3002V11.3002C34.2293 11.698 34.2492 12.1772 34.4905 12.5563L35.87 14.7234L36.8529 16.3111" stroke="#991c1f" stroke-width="4" stroke-linecap="round"/>
<path d="M45.9726 19.4502L46.5897 19.2784C47.8906 18.9161 48.9823 18.029 49.603 16.8297L49.7126 16.6178C50.0322 16.0004 50.1839 15.3099 50.1527 14.6154L50.0557 12.457C50.0295 11.8739 50.4093 11.3499 50.9717 11.1933V11.1933C51.4046 11.0727 51.7398 10.7297 51.8503 10.2941L52.4822 7.80408L52.964 6.00005" stroke="#991c1f" stroke-width="4" stroke-linecap="round"/>
</svg>
